<mxfile host="app.diagrams.net" modified="2024-05-18T07:03:35.663Z" agent="Mozilla/5.0 (Macintosh; Intel Mac OS X 10_15_7) AppleWebKit/537.36 (KHTML, like Gecko) Chrome/124.0.0.0 Safari/537.36" etag="e0kxrSCHRkO4J5-clsYp" version="24.4.4" type="device" pages="2">
  <diagram name="API-Led Architecture Diagram" id="uTyHY_axtuJgdYlNoXhq">
    <mxGraphModel dx="954" dy="558" grid="1" gridSize="10" guides="1" tooltips="1" connect="1" arrows="1" fold="1" page="1" pageScale="1" pageWidth="827" pageHeight="1169" math="0" shadow="0">
      <root>
        <mxCell id="0" />
        <mxCell id="1" parent="0" />
        <mxCell id="F-XrtWiEZud6chYZasPX-1" value="Experience APIs" style="swimlane;horizontal=0;whiteSpace=wrap;html=1;fillColor=#1ba1e2;fontColor=#ffffff;strokeColor=#006EAF;strokeWidth=2;" parent="1" vertex="1">
          <mxGeometry x="159" y="160" width="261" height="120" as="geometry" />
        </mxCell>
        <mxCell id="F-XrtWiEZud6chYZasPX-6" value="" style="shape=image;verticalLabelPosition=bottom;verticalAlign=top;imageAspect=0;aspect=fixed;image=data:image/png,iVBORw0KGgoAAAANSUhEUgAAAH8AAABqCAYAAACVpo47AAAAAXNSR0IArs4c6QAAAAlwSFlzAAAXEgAAFxIBZ5/SUgAAHXVJREFUeAHtnQmcVPWRx6vPmek5mBPkkBtFAS8Q1MRr1Rg08YommhijoOJiiEfWjclmV+InxpiNR9ZVCa4ESci6ksuYqDGJqBFU8FYQBUfkPoa5e2Z6+tpvvZ43/bp5Pc7BzLwe5v+Znu5+7/2v+lXVv6r+R4sMpoOWAi6n9XzhwoX+nVt3nhyKhtYtXbp0l9Pa19n2XHHFFWVer/d7rrjrOM0Tj8c3jB47egH9i3S2jN5+ztvbFXS1/HXr1klhQeG/e1ye8quuumolBPxTLBZb+8gjj1R3taz+eH7BVQsqml3NF8YkdqXE5dhoPJrrdrm1KYEdO3Y4StgcB35JSUk80hrJE7cc4RHP2Eg48hWXy1V5zdxrVseisZXhWPiNZcuWbe8PYDPViTR7t2zZMoX7FwYl+AXAHi8xKYzFY14YQMRRkCd74TjwtWlxV9zvEpc7Eovk8zU/HouXwgBTYYjLYYhdc66cs47rryJdrxQXF2+47777ajVfX6Zrr73WR5smRcPR0wH+TJVyt9tdGo1EAxFXxGO0RYEn8Ry8EPMnvjnnv+PAHzFiRHTrJ1tXQqLRXre3FJUvMVfME41FDUaAKcpcbtckCPr5eDQeqqut+5jh4W2+rw6Hw2thhsr7778/1BskXrBgQVFjY+NUt7hPjUViJyHZU6m3mDblwag5fE9IeRvoHrfHAD4u8SpP3PO89q032tXdMh2pkK688spipOgICHsuInMBxtIUPosyAlohta9xiXo8nhD3WxgW6lCxGwBnFZL498KSwrfvvffe5tQMXfs2Z86cQoA7DhY8GwY8hXom0rY82pIL2Cr9CRqaUk4DaI9wTw27t2DUJ2DKZ8nzIQZsn2uojnrrSPC1wZdcconH7/fnQ7Qy3s+AAS4B0JMZT/Oi0Sgf26md7B8XwSJCnmbAaeLGuzDCn/15/icfeuihyuSDn/5p7ty5E6nzfKo5l6ePpMz8NsCT2rK9CS7hfqJQl+ygGX/zRD1/DMVDr2Cw1jc0NDStWLHCUVKvjXUs+AlKGv9dMEJuAckdd093eVxfApRzUbXDeRek0fJoao9glDCgBGGWXW6P+ykAWbp46eJ3UzOkfrv66quPYjiZQ9nnkGcogOcjxfsBrrnUilfQAbuJ9qzFJnmytbH1OV++7xMs++DTTz/dK8NPaou7/y0bwG/vHUzg9/l8+UjTWF6zIfhFgHMMY6snRRuYOczegQ6quAlAd/LxD/je6i20iar5MAOMS0bxzAUAegjlBfieKMEy0piAw3RRPm9gGPoLbXgmFAq9Q5saJ0yY0Iz1z+Dv/GSSx/kttbQQ4rr3rNsTqPPXFed4c2ahDb7A7TPxCkapJAKGjrnJHGYvQR6AgtxIUxdtj8bFE4niYVhA149apg7tMIQOKxupb6U74v5r2BV+nSGphtxNixcvDicrzI5PJlmyo7U2rZw9e3YOVrTaBsMB/UTk90wwPglGOFQNLx0a2l/pxqJNeQq2CbiRT+LKLB9w8UWGnVVxd/yt5ubmfTU1NU1OV+s23Uu5lPXgW3rjZljIycvLC/Aa1traOg2GmAFDHA2YE3huKINzAMl1qxSnpzagI7zXkW8bLPMez7zG6+1IJPIh14K7d+9uBvBWrlkGgvSSsuf7/lTox7YTOJkGWDMAoCYQCDyHv17fzea4cRf9wWAwJzc3NwcNMATAR/AahuquAMgSxusCIPQzZiuQQe7twSDchirfwjNVeo12tGzdujX0/PPPdzkef92V142NeqL/xADki4fje3xeX2VYwpVLlixp6GafDng2R4BPkKYC4n+H3n0JUIogeozXO1jbv4EZnoBgO3rYc9dpp53mmTZtmgfDzIMke3C/3ISSjWJhkjgMEa2qqorgVER64Ja5cBGPoe2X0YNzYbrhWgHfo9ggzWigSvyDv3pzvMsXLVq02ai8H//1O/gEUUZgfT+MMj4FUAoYW40EE6ib1gj4m/n8NyT0CbTBa70VvesJBsq8Xpf39KhEz0ObfJZ2l6m3wNCR9CjQL1yPwORNMMZmfI2fwNTLe1JvT/P2K/iES3MIly5hBu9iwqOJ2Lc5mra1DGmJqZsGMYMwyJsQ7+/euPf54bHh7y1curClpwTobn4FHIk+nrafCWOeDOjjaGs+/ciljYlizb6YlVj6BEPXkm8hDHC/ebuv3/sVfMblr+OjL8Znzs1oQllaiMpsZShoxh1rhFA6ufMahH45T/Lejvgiu3rT3Zo/f34BYdoxaKcZtGMWUj2DusfShgCMmYvGSpnM4XrmRJ9gFHUfq70+72W0+9nMD/feHQtpe6+S9JKRGNe8efPywq3h5yDALFR7+iP2383WqgrVYcHjbqEsjelXoUY3UdYGPPj3XF7XR/jfO/Hpq8rKypq6soBCtRFjf2FRbtFQwrMjUdWTqWMqUE0C8PEwayHfcwE8px1wbW26lNv3IHmVvujED31/oThYPPveFT2bg0gW3PlPJjk7n+MAPKnToS0tLTO8Hu9KDKGcLhNO22BpOcAo90QYHtQNawWYMEDVc30v4O2h/Dqs7mpsizqYJAR4+oqhsn0879OpYxinhFexvnNvGNdLyRcAID9l+bnmQ0PpRA632lJXATfzme9aVFxa6cupTPq8Yl7uq/dkzLqvaqQegiR+pPIsCJlDUKZ7yUJ4xk41rPwMB8k587gMxUYYB2gazYuhKTR8q7WpZa+59YWjF3fhhum7qm03xpgG670wixEPgDG4nEgwU9cl3Mxs904LaIsfOlzA7YMDfFRyDpMnX0sJwdoRp7PXLIzQnkXVQWJCJsHgds+0P5z2AYzREgcW6LQqzK8GDeJyKd9vNa/11Xu/SD7jnAdJm2BV3Qe8w10B+4BX3oUCaSeSH+hCjgP2aNIPPWBFdrIgtY6zBaBOdinbHus/8AeB73de6T/w+73rgw0YBP8g5oFB8AfBP4gpcBB3fVDyB8E/iClwEHd9UPIHwT+IKXAQdz0Z3l22eZz4c65nzVGAecZeJclvWqpzv/TiPb1aRzYVHnbnFMjybQ/2dZt1UjGRfr39LskNzJdQS68PBW62Ww2r+6TX6zG75vT3GPP6u4vH9K7E2RAhKfnxeIW0thZIa+/vMNJe7iwYadOcg/hSH9A9nbpW8Im2a8B9MOieTqSB+n1Q9Q5UZDvRr0HwO0GkgfrIIPgDFdlO9GsQ/E4QaaA+Mgj+QEW2E/1KWvudeDirHzGcGP5ZvWmNcujLdHDMd+M6//R9AKeBDb6CaWzCFSngcLfRAb9MKPDI+CK/DM1xS47HJUU+t9SHY8LebNkXisnWYES2NEZlS3NEdjax+y5KIQOUGQYm+Ao4El6U45JZ5bnyuRF5MrMiTyYVecXndokXMD2865jHG6d4JIRfcY7wRRmhvjUu79WGZM3ekLywKyRv1IQkxFYQI5N140YWa4aBBT7YKJIj8j3y5bEFctHogBxe7JcAaDdF4rKhthVAW6WyISJbmyJs7YlLA9cLfcoQLilHGxya75VxBV6ZVuqXM4YHjNeNU2LyVnVIntzSLL/bEpSdQfaBKNeoRsjiNHDAB/Riv1u+PqFI5hxWIOMAUdOLu1sArUler26V7ajxEGCH26RbeUX3ZuhpLYqjBwZQraDaIZ+ydIiYUZYjZ4/MkxPL8wwtcs3hhfLYR42yjNcOyiOTVpOVKdnyX219RLy+ORLq0ZmFfU8EA8G4nDosV/7t6GI5vjwHcEUe/7hRVmwOyrrasAQBHC3OHk7+6fOdSVBG2Yf91hLAXpgyxCcXjM6Xi8cGpMDnkQ/qw3Lfe3Wy4pOghHWYycKhILvBh+gcaS03HFEkN08dguR7ZAWgP7ihXtbXRqQxqoZcG9LJnnYG+sQzZl6+qUYoQMrHFXrlGxML5YoJBYbj8KetTfLvb9YYhqIxFHS+9H5/MrGnXJtx0c3ni9tzrESTGxP7vXUdNQDVPTTHI3fPLJV5k4dgqUflljXV8rMNDVLZGJEm7htenYLeHeC1bjMv7xQnLRS4JxSXl3e1yAsYghNhhNmjAnL6IbnycUPYsCWySQNkJ/ggMSrglYc/WyHnYdQ9v6tZ5q/eJy8wvjdgxPUYdDuma2MEVQbKBNtxCZ/d3iIR6juP4eDzMMEWrq2vYZd4lgwB2RfhQ9WPxphbenK5nIUL9+vKBpm3ap+8WxeWFkXGlFb9rOJ6oJK1POpQr29nS1T+k3F//stVGIkii04sl2sPKzyw9R6o9tuUk13gQ/ByrPD7TyiTU4blyQOM7besrZUdgKA+ert6B/QijLQL0Ap4bz1PMNxEYgTnjspLGIyGgZeor56KV3zcJJe/sFfqWqPy4xml8jXsgUSDel51b5ZwIEjTm+1Llg24evLCj6eX4XoF5JGN9XL7WzVS04oOtko7YJyG5f/YyUPl4c9UyNn46j3SANTrwx/8wTEl8gvKfHBWKS4gfoCpVai7GWZ4HjtgLkNPHe25Bwb4HO6h0xkge8CH2HMnF8plE/IZa5vktjfqpFb9N7MHxse4XHd4kSw7ZaicwZCgQZubpxZxtgoIcb9biXq/PCEgF6JFKihPLf3HTx8mZw3PTYKrwwCFr4IBvvnKPrSNS+6dWSbjMQjN8HK36u7lTNlh8AHArIocY0zdTcz96lVV8okGWCzAq3q/Hen8zlHFMiyPH2NRbUAagWG4AZ/8PYI8XXbFkOgx2BeLTqqQEZSpSQNAQ3M9ctohAfm4MSwfYGsYBh71qaH5CdHDmkhMLkf1jyLvHz9pSpzy3NYeoxCH/DPJ55Dm2DQDic2D4D84tliKQfi7b9TKh/jw1uRCrL9/9BBZcOQQKcEmsCb9evORRUberkq/h7o1cHR4kZ7blEzKWKOJ/j2AgafRv3b1znU9EerRDxtl+UcN8sVDA2gNfh3GHCKSRTjiUyqlHNGktEZAuEvGF8jpjN2/3NQoTxOqjWmrTUni/lxU8Q1HFEuBRmJs0jGEaL82oYtWOLbDObhvX6VuU4tYi9aaRgQ88t+zyuU4oortAHMjSHDpjnfqZFdzVBaijcY6VP07G3wkT2fmbjyiEMNO3ap6zlGD6ibGAD8dwi88tsSYnLGCY/2sPLGAMoYzBHRK+qlDh47bjiuR/AwMpeVrM8bjBdw5vdiYGm4vG031UV1E7llfJ2MxDudMgvH0TDCHJWeDD7jnjy5ghi1HHkGVfsTYbR3n1ZC7DbWsEvhpaWKhT65lUqZdQjvKwFh/y7QhcnRJ8mS3TI8rAXX8v/awopSyVTst/ygo72JrXAX4Y3XoUBfRQcnR4Otii2smFUgD7tMvNjWkCg+MccHYfFwq/TWUT0+quq8GhElM0HQIAur+DCz5uZOKjHj+p5eMCwoVvzWlUCZYy6a+GkKBiz5okJEw58W0NbUDnSm5d59xLviAewwqfWZFrjyzs4nYOUaeiTIClM8c/HVE09TK72zSef7rJ6uEZshBuaW5brn92FImiczKMjybdlnDzV/HPrACrNPFT2wLGqHgy8YFmCbmgoOEvwukS+ttb38FoPMOzTPAfbwSdwlmSIIfl1MOYX4dxuhK0s5+FRfsWAxAW/WPWv4WHsPxuJVdTcoqGtkbBoO1A0yFuxtj8tT2ZmPoms6qog61Tlcr7eHzzgQfnHOQbF1+tRO/fnUVawyskyXcv4jJlDSvrp0U61mt836dOl37Jw383DClqN10aH8C5joJZppPkIiqMyadPKrVqKJN0hVAJxN2tjIWPwMpf97abJSps38ZtY5Neb19yZngQ7CxBT45Yohf1la1yt4m0DZbinSWE2Q55ZDM0rn4wwa57c06Yy1eOgEV1wvG5JNfgaBcTbwVgfjtxxVTtllR4pb1/xamir/JJM6Le+yP+Ve7Yjbxfyuf6pc3q1tkL/MPCr5PH2qr1lp2f3zO3NP+aI1ZJ4J1ZLHPcLNe3RMSDkM27xiEm4wVPh7r3S7tgch/2tbM0q2gPMW7XRqC+/btKcWSY6JE+fMOH2JIbQdCL/e+Xy/v7w0zkRNs55v08meW+XE7IavZZD7uaI6hicIylXaXB5xDcue0xEpFCDdZLWfSe6q+rYjAGFOHeDNa4rradjPGYQuA/vDtWtnLIg+7dObIXJmNTSGocA3S3MhYn2kY0fzP7WyRZRsbhUPX5R+7Q8biEbtyx8KUwzSe0I4+NiDLiXQYKmXIGZGn/TI5w66EvrvmTPAB+wgA1oWWlayhTwEf2hzJitxM6SXAT6y1R91WheRuAkN2SZd/3TRliFTghv0HsYLhHUikztTdxgxiNYEmbcs25hXeqdGpnP2TBoUm0/b0sV1D0srDuijU6hHsX0LfXXEo+C45BAlpRmJqUeMp6NPi0dgDmdImllMZVIbS/JqR/A/j/1qYwC7NxPpezGqgs3Wctnug7drDSLwOP+YETpTw7cYGe4NSyxmWs38kcU+bBlJ7xSnJkeArAXXY1NUyxFxSsNd7mejXiqbYpbN9JpK869q+O96tlZBRUCrZtRxdg6daIFNSdf1fhGm1Le3l8rnGiDPb5ypLb6C2o81D2O+efRF9ctV54ENYHXvV+tZtVC3Ww6G458VazjSBo/gY8QAr6ZD+Z9hs8dhm/U2m/VNHQSLllzuZoNmmQ08apfjplf0La7vCIuL9EnxpJDX2nZLSuuSAZkEcXaOBVyWFXjeMYGki99QO0A0zdsmPBBcq51hxIQ8/qCM/eadetrHAsivpGRaN/Jb5eONHXNIyWqtIu2UMV+nXnPjdQlnnNE/nPxRksN/fqsfar81gwatQBTRTekL6ddHFz3DVOptqqEO9hSYWZrSre0vmwg5m+/ZrH/3R4JKmvUzzOiXZUMoBTQN4jewVMPAXGf6XRc74qON4pjRcx1vL48ZzcEWU1xJmBl9Sw60TaRFG3ut71c1UlkpLaJjR+Zk9Do01pDNMadtYUM1O4PR7aaX32Vdngk/3N9VHDKkfXwiY0MuaPmCuPFOawPy6bQJDddXueEelOZ07UnPoZs4H1MjTy+nYk1Xd+InaLpvUiGW4ScestHyH0S6ttVLHrLR7NsX0ySVngg9x3q9PuFKHFRHGtWJFi99kjlz349mlmUzaGCFUu5tI8UomWZazpStT0uHmRxh5O5qowJY6caKLflbn2LublY2txjo+K8JuNMVkYhN1SP32oLKUM9C37V4mwvTZdQW/higd5vYJFX5xpbTSJRthjF0MC3bpSEKoY1T61XBIT5Srxt9P363jAAb7/E+y9+4JNl/qdKxtQnDPGJGbcYXPW/vC0qR+odlm6htGAGlaiU/Wsxhlr273Me/ZVtB3FzPoyL5rgG1NSKgGa3Qn7AlMr+rCzRp1ARQQCLcbqVzF2H3puP2bX8az5+G73wPAxjbb9AqQwk2Ef299o4aFILkpMXq17R5i8UWT+ng8Z5fycEG/PMZ+AUkUoH8P8yTcwLb8lDkVqa/AFnmUNYghrcQh/t7+1LPrcV9fg24a3VtJPP1b7MDVbdfPoq5N4ysGkf+PyZVL2C6te+qtSb99g3n1X7LyZ6/JMNYH+Az55fdM/PyFqVZTP2g+/ax7/cx6+JqauHcOK3KMefnUO8a3ddgKum8whXEobnbbaqO/7bSfaLIpqk8uOUQB2fRVpUhX6nLrK+NYIWOipI8CuM6rb8gwZ6+q/5vE7VPE2loFSKtBXo0U6hp7fZmfI1pRKj8lctIeXeVzC1vBMwWGlmwMSp1uGDTz81HnDi6ESXWNwRozRGxtSz9+di74qF2Nyb+5LyTnsKhDN0C0MwCtrmXsfGBDY/slKw3VBb+eRRmXjmfdXCbLXgGye1kLsnzW0ztuYRpYVwvbJW3rr1DrKQEhjEcNH4/GPfjN5ibjnB+njPfaB+eCDzDNmPQP45sPQ3qumJi6+VENssdQ/WuZxbNLOvbffXwZR7QU8uvIIAcQ3U6o+6vYG3A9mz/sYjs6RP0IG8OI3ytDaaK6AuyD+awY1rjE/+Jh8IPPiXsO+e9c8JVAqPffMja/j8qchySP0g2SJv1ouUbh7mCLtBLfLumS7p9yeMOiE8rlsyzRAouuJxjn88z6/XA6ewPskKfE+4gcPoOh167utRaY7SIOhToO13MZS7g3aWwizT7pemMObA5ng68Ao97vW9+A2vfIv7KWPkWCIeZfsAvuXp85bKvbty5Ha/zilHJD/dq6gB3RFKPjfNYLHtK2Vy/90T9sDcrdSL16cO3gwzAjUfXfm1Ysurfw5x/UJ6bwu8N86RUewO/OBp+OGuq9MigvsgNWd76ciY9t3RunM6v3Iv1PbUPyMqQ8XCt1w3ZrWDijA58hM+Wv3tvSjqv1qWfwQG56pVr2acTJQknV7reyQET39N+1rk4qiVZa71vL6M/Plib3ZzM6qBtpaeBnWW7j0CONvt01o8w4K69dA9CD6nBUblhbzWGJ9gsrtfTXWHsXtG7p7qDKlFsYni/uDDHXAONY0p9htutfadstbLmujKmHNV2FttFnHsUD0HkFJybng29QzSUv4yb9kEUZR3E44l3Hl0q+BkrMoR71r9I1b3WVcUiCHaFXIb0pC0HtHrK7BoX0wMZXLauBllc2ynUcxPAxa/KNJpjgAvyprNC9k8MZdpHn1teqpQHGtFUbdnX18bXsAB/iakR88fsNspwzePSghNunl4oRXW9jAB1yNxK5m/vSXnmU7dHW1AwohlfQzd7G0DhPYdDVsxrn+2igm9bUyDY0gWG9W4DXzR4PnlRurAy68bUaIpTOM/KsdElOTTn9KDaIrOsn1zDNOpU4+cWsvc/F+l5FsAdsDenSN85cNOyDIIGbo9ngmcczejTbnYy9xkoqEywrFT71s8uwF1YyrPyW83c0KJQizXgbCvySk8tlbL5PFqzZJ3/ErzdmD7pV36c26IA8kD3ga3chZCOE1uXZMwi26ImY5Vjhq3c3J9boaTyeP5X0N2GSl1D1GlPfiJv1OKB12+iiTJ2M06PWWIKfBF65Da3wRTTRIiR+ZMDHnME+Wb6pSQzrg3xOTs6M7XdAMaW3SvI1q/bKfbPKjJ23I/K88t3X9yW2cHvQ7RC9AVBeYn39+rp9xnpAzdeTpKO7sZzQBJTydbPoAg6AvJnInw4B/4wB+AckXg9oStEMPam4F/Nml+QrISC+AqmHMal1X5HnZoIn3ziAaTcrd3Um0HgALQA+rPdj+TfPdtXDs6W5Aq/A8jcTzaOHLl1B5E/P5lnwcrXomr9mbZzJILaFOOdi9oGvtGtjAN21/Q/G/H3M0nxxVL58ATtAD2HQQ5F2m64ZnoDi0eOknMSfHrn6L0wa/RiPY2pJjjyG5f9t3My3WGCScmpIjyvs/QKyTu23k8RggDhLs+JE0BrlbXbQKCi6TVqPQn0cUJYTHHqb41DVWjfG+66EV5Vj2qTcj9E4FePxUvbYX0zItgI74wNCzje9uk+e3cGuXYI8+ni2SLxJw6SCytYj17UnUF7j9iUcxHzhoblyDUek6I8sNAKKTv0+jZv2KkZiJQab/sBCuypI9j55TctjyCjmLKCJWO6fGZojZzEfP50NmLqgVFcR6cFQv2MvgPry2Sbt2j0zJbufzeBrb1T06E0A6VYP4GzCwBfjDZw4LHH+vnoA+rMpumfuQ1YJ7WFY0EOeNDKr8aISVtcOYR5gjP4Gj24Ph3l0YiiXm+rZrd7TbKwvWMlPrlSRV5f4GSt2khQ0aZo178mmZzv4JskN/Zs4u09/VOkoFnaciA/+GWb1phAfKEU7aJhYFYC+zKReojKB/tyK3tcNHrqKVyOLa1hToBFE/dGGZh1CNCUpl/iehf+zd8zPROw2UBSkZlbV6ITQGly+n/sajLF6JFrhUKRbJV3X0useD8VTl3XrwsvtqHI9yFnXCeqwoYtIdcZOJ4aMNABAN0k38MA3e9YGki6k1Z9BaWBwruK1EVfQu9sl6ua0xYSMEUMZIEYeBTmCX5jykyxa1gAC3STRwAXf7KEFNB2jdYwPG3CbD9i8mytuLHltnsr6SwMf/HSIBjig6d3t6Hs357k6KnLwXrZQYBD8bEGqF9o5CH4vEDVbihwEP1uQ6oV2DoLfC0TNliL/HyOEvS6Nh8GPAAAAAElFTkSuQmCC;" parent="F-XrtWiEZud6chYZasPX-1" vertex="1">
          <mxGeometry x="105.05000000000001" y="30" width="71.9" height="60" as="geometry" />
        </mxCell>
        <mxCell id="F-XrtWiEZud6chYZasPX-7" value="&lt;b&gt;super-starwars-eapi&lt;/b&gt;" style="text;strokeColor=none;align=center;fillColor=none;html=1;verticalAlign=middle;whiteSpace=wrap;rounded=0;" parent="F-XrtWiEZud6chYZasPX-1" vertex="1">
          <mxGeometry x="67.94" y="90" width="146.12" height="30" as="geometry" />
        </mxCell>
        <mxCell id="F-XrtWiEZud6chYZasPX-2" value="Proccess APIs" style="swimlane;horizontal=0;whiteSpace=wrap;html=1;fillColor=#1ba1e2;fontColor=#ffffff;strokeColor=#006EAF;strokeWidth=2;" parent="1" vertex="1">
          <mxGeometry x="159" y="340" width="261" height="120" as="geometry" />
        </mxCell>
        <mxCell id="F-XrtWiEZud6chYZasPX-13" value="&lt;b&gt;super-starwars-papi&lt;/b&gt;" style="text;strokeColor=none;align=center;fillColor=none;html=1;verticalAlign=middle;whiteSpace=wrap;rounded=0;" parent="F-XrtWiEZud6chYZasPX-2" vertex="1">
          <mxGeometry x="56.620000000000005" y="90" width="169.76" height="30" as="geometry" />
        </mxCell>
        <mxCell id="AdGYSi3JHzEAW-MP-21N-1" value="" style="shape=image;verticalLabelPosition=bottom;verticalAlign=top;imageAspect=0;aspect=fixed;image=data:image/png,iVBORw0KGgoAAAANSUhEUgAAAH8AAABqCAYAAACVpo47AAAAAXNSR0IArs4c6QAAAAlwSFlzAAAXEgAAFxIBZ5/SUgAAHXVJREFUeAHtnQmcVPWRx6vPmek5mBPkkBtFAS8Q1MRr1Rg08YommhijoOJiiEfWjclmV+InxpiNR9ZVCa4ESci6ksuYqDGJqBFU8FYQBUfkPoa5e2Z6+tpvvZ43/bp5Pc7BzLwe5v+Znu5+7/2v+lXVv6r+R4sMpoOWAi6n9XzhwoX+nVt3nhyKhtYtXbp0l9Pa19n2XHHFFWVer/d7rrjrOM0Tj8c3jB47egH9i3S2jN5+ztvbFXS1/HXr1klhQeG/e1ye8quuumolBPxTLBZb+8gjj1R3taz+eH7BVQsqml3NF8YkdqXE5dhoPJrrdrm1KYEdO3Y4StgcB35JSUk80hrJE7cc4RHP2Eg48hWXy1V5zdxrVseisZXhWPiNZcuWbe8PYDPViTR7t2zZMoX7FwYl+AXAHi8xKYzFY14YQMRRkCd74TjwtWlxV9zvEpc7Eovk8zU/HouXwgBTYYjLYYhdc66cs47rryJdrxQXF2+47777ajVfX6Zrr73WR5smRcPR0wH+TJVyt9tdGo1EAxFXxGO0RYEn8Ry8EPMnvjnnv+PAHzFiRHTrJ1tXQqLRXre3FJUvMVfME41FDUaAKcpcbtckCPr5eDQeqqut+5jh4W2+rw6Hw2thhsr7778/1BskXrBgQVFjY+NUt7hPjUViJyHZU6m3mDblwag5fE9IeRvoHrfHAD4u8SpP3PO89q032tXdMh2pkK688spipOgICHsuInMBxtIUPosyAlohta9xiXo8nhD3WxgW6lCxGwBnFZL498KSwrfvvffe5tQMXfs2Z86cQoA7DhY8GwY8hXom0rY82pIL2Cr9CRqaUk4DaI9wTw27t2DUJ2DKZ8nzIQZsn2uojnrrSPC1wZdcconH7/fnQ7Qy3s+AAS4B0JMZT/Oi0Sgf26md7B8XwSJCnmbAaeLGuzDCn/15/icfeuihyuSDn/5p7ty5E6nzfKo5l6ePpMz8NsCT2rK9CS7hfqJQl+ygGX/zRD1/DMVDr2Cw1jc0NDStWLHCUVKvjXUs+AlKGv9dMEJuAckdd093eVxfApRzUbXDeRek0fJoao9glDCgBGGWXW6P+ykAWbp46eJ3UzOkfrv66quPYjiZQ9nnkGcogOcjxfsBrrnUilfQAbuJ9qzFJnmytbH1OV++7xMs++DTTz/dK8NPaou7/y0bwG/vHUzg9/l8+UjTWF6zIfhFgHMMY6snRRuYOczegQ6quAlAd/LxD/je6i20iar5MAOMS0bxzAUAegjlBfieKMEy0piAw3RRPm9gGPoLbXgmFAq9Q5saJ0yY0Iz1z+Dv/GSSx/kttbQQ4rr3rNsTqPPXFed4c2ahDb7A7TPxCkapJAKGjrnJHGYvQR6AgtxIUxdtj8bFE4niYVhA149apg7tMIQOKxupb6U74v5r2BV+nSGphtxNixcvDicrzI5PJlmyo7U2rZw9e3YOVrTaBsMB/UTk90wwPglGOFQNLx0a2l/pxqJNeQq2CbiRT+LKLB9w8UWGnVVxd/yt5ubmfTU1NU1OV+s23Uu5lPXgW3rjZljIycvLC/Aa1traOg2GmAFDHA2YE3huKINzAMl1qxSnpzagI7zXkW8bLPMez7zG6+1IJPIh14K7d+9uBvBWrlkGgvSSsuf7/lTox7YTOJkGWDMAoCYQCDyHv17fzea4cRf9wWAwJzc3NwcNMATAR/AahuquAMgSxusCIPQzZiuQQe7twSDchirfwjNVeo12tGzdujX0/PPPdzkef92V142NeqL/xADki4fje3xeX2VYwpVLlixp6GafDng2R4BPkKYC4n+H3n0JUIogeozXO1jbv4EZnoBgO3rYc9dpp53mmTZtmgfDzIMke3C/3ISSjWJhkjgMEa2qqorgVER64Ja5cBGPoe2X0YNzYbrhWgHfo9ggzWigSvyDv3pzvMsXLVq02ai8H//1O/gEUUZgfT+MMj4FUAoYW40EE6ib1gj4m/n8NyT0CbTBa70VvesJBsq8Xpf39KhEz0ObfJZ2l6m3wNCR9CjQL1yPwORNMMZmfI2fwNTLe1JvT/P2K/iES3MIly5hBu9iwqOJ2Lc5mra1DGmJqZsGMYMwyJsQ7+/euPf54bHh7y1curClpwTobn4FHIk+nrafCWOeDOjjaGs+/ciljYlizb6YlVj6BEPXkm8hDHC/ebuv3/sVfMblr+OjL8Znzs1oQllaiMpsZShoxh1rhFA6ufMahH45T/Lejvgiu3rT3Zo/f34BYdoxaKcZtGMWUj2DusfShgCMmYvGSpnM4XrmRJ9gFHUfq70+72W0+9nMD/feHQtpe6+S9JKRGNe8efPywq3h5yDALFR7+iP2383WqgrVYcHjbqEsjelXoUY3UdYGPPj3XF7XR/jfO/Hpq8rKypq6soBCtRFjf2FRbtFQwrMjUdWTqWMqUE0C8PEwayHfcwE8px1wbW26lNv3IHmVvujED31/oThYPPveFT2bg0gW3PlPJjk7n+MAPKnToS0tLTO8Hu9KDKGcLhNO22BpOcAo90QYHtQNawWYMEDVc30v4O2h/Dqs7mpsizqYJAR4+oqhsn0879OpYxinhFexvnNvGNdLyRcAID9l+bnmQ0PpRA632lJXATfzme9aVFxa6cupTPq8Yl7uq/dkzLqvaqQegiR+pPIsCJlDUKZ7yUJ4xk41rPwMB8k587gMxUYYB2gazYuhKTR8q7WpZa+59YWjF3fhhum7qm03xpgG670wixEPgDG4nEgwU9cl3Mxs904LaIsfOlzA7YMDfFRyDpMnX0sJwdoRp7PXLIzQnkXVQWJCJsHgds+0P5z2AYzREgcW6LQqzK8GDeJyKd9vNa/11Xu/SD7jnAdJm2BV3Qe8w10B+4BX3oUCaSeSH+hCjgP2aNIPPWBFdrIgtY6zBaBOdinbHus/8AeB73de6T/w+73rgw0YBP8g5oFB8AfBP4gpcBB3fVDyB8E/iClwEHd9UPIHwT+IKXAQdz0Z3l22eZz4c65nzVGAecZeJclvWqpzv/TiPb1aRzYVHnbnFMjybQ/2dZt1UjGRfr39LskNzJdQS68PBW62Ww2r+6TX6zG75vT3GPP6u4vH9K7E2RAhKfnxeIW0thZIa+/vMNJe7iwYadOcg/hSH9A9nbpW8Im2a8B9MOieTqSB+n1Q9Q5UZDvRr0HwO0GkgfrIIPgDFdlO9GsQ/E4QaaA+Mgj+QEW2E/1KWvudeDirHzGcGP5ZvWmNcujLdHDMd+M6//R9AKeBDb6CaWzCFSngcLfRAb9MKPDI+CK/DM1xS47HJUU+t9SHY8LebNkXisnWYES2NEZlS3NEdjax+y5KIQOUGQYm+Ao4El6U45JZ5bnyuRF5MrMiTyYVecXndokXMD2865jHG6d4JIRfcY7wRRmhvjUu79WGZM3ekLywKyRv1IQkxFYQI5N140YWa4aBBT7YKJIj8j3y5bEFctHogBxe7JcAaDdF4rKhthVAW6WyISJbmyJs7YlLA9cLfcoQLilHGxya75VxBV6ZVuqXM4YHjNeNU2LyVnVIntzSLL/bEpSdQfaBKNeoRsjiNHDAB/Riv1u+PqFI5hxWIOMAUdOLu1sArUler26V7ajxEGCH26RbeUX3ZuhpLYqjBwZQraDaIZ+ydIiYUZYjZ4/MkxPL8wwtcs3hhfLYR42yjNcOyiOTVpOVKdnyX219RLy+ORLq0ZmFfU8EA8G4nDosV/7t6GI5vjwHcEUe/7hRVmwOyrrasAQBHC3OHk7+6fOdSVBG2Yf91hLAXpgyxCcXjM6Xi8cGpMDnkQ/qw3Lfe3Wy4pOghHWYycKhILvBh+gcaS03HFEkN08dguR7ZAWgP7ihXtbXRqQxqoZcG9LJnnYG+sQzZl6+qUYoQMrHFXrlGxML5YoJBYbj8KetTfLvb9YYhqIxFHS+9H5/MrGnXJtx0c3ni9tzrESTGxP7vXUdNQDVPTTHI3fPLJV5k4dgqUflljXV8rMNDVLZGJEm7htenYLeHeC1bjMv7xQnLRS4JxSXl3e1yAsYghNhhNmjAnL6IbnycUPYsCWySQNkJ/ggMSrglYc/WyHnYdQ9v6tZ5q/eJy8wvjdgxPUYdDuma2MEVQbKBNtxCZ/d3iIR6juP4eDzMMEWrq2vYZd4lgwB2RfhQ9WPxphbenK5nIUL9+vKBpm3ap+8WxeWFkXGlFb9rOJ6oJK1POpQr29nS1T+k3F//stVGIkii04sl2sPKzyw9R6o9tuUk13gQ/ByrPD7TyiTU4blyQOM7besrZUdgKA+ert6B/QijLQL0Ap4bz1PMNxEYgTnjspLGIyGgZeor56KV3zcJJe/sFfqWqPy4xml8jXsgUSDel51b5ZwIEjTm+1Llg24evLCj6eX4XoF5JGN9XL7WzVS04oOtko7YJyG5f/YyUPl4c9UyNn46j3SANTrwx/8wTEl8gvKfHBWKS4gfoCpVai7GWZ4HjtgLkNPHe25Bwb4HO6h0xkge8CH2HMnF8plE/IZa5vktjfqpFb9N7MHxse4XHd4kSw7ZaicwZCgQZubpxZxtgoIcb9biXq/PCEgF6JFKihPLf3HTx8mZw3PTYKrwwCFr4IBvvnKPrSNS+6dWSbjMQjN8HK36u7lTNlh8AHArIocY0zdTcz96lVV8okGWCzAq3q/Hen8zlHFMiyPH2NRbUAagWG4AZ/8PYI8XXbFkOgx2BeLTqqQEZSpSQNAQ3M9ctohAfm4MSwfYGsYBh71qaH5CdHDmkhMLkf1jyLvHz9pSpzy3NYeoxCH/DPJ55Dm2DQDic2D4D84tliKQfi7b9TKh/jw1uRCrL9/9BBZcOQQKcEmsCb9evORRUberkq/h7o1cHR4kZ7blEzKWKOJ/j2AgafRv3b1znU9EerRDxtl+UcN8sVDA2gNfh3GHCKSRTjiUyqlHNGktEZAuEvGF8jpjN2/3NQoTxOqjWmrTUni/lxU8Q1HFEuBRmJs0jGEaL82oYtWOLbDObhvX6VuU4tYi9aaRgQ88t+zyuU4oortAHMjSHDpjnfqZFdzVBaijcY6VP07G3wkT2fmbjyiEMNO3ap6zlGD6ibGAD8dwi88tsSYnLGCY/2sPLGAMoYzBHRK+qlDh47bjiuR/AwMpeVrM8bjBdw5vdiYGm4vG031UV1E7llfJ2MxDudMgvH0TDCHJWeDD7jnjy5ghi1HHkGVfsTYbR3n1ZC7DbWsEvhpaWKhT65lUqZdQjvKwFh/y7QhcnRJ8mS3TI8rAXX8v/awopSyVTst/ygo72JrXAX4Y3XoUBfRQcnR4Otii2smFUgD7tMvNjWkCg+MccHYfFwq/TWUT0+quq8GhElM0HQIAur+DCz5uZOKjHj+p5eMCwoVvzWlUCZYy6a+GkKBiz5okJEw58W0NbUDnSm5d59xLviAewwqfWZFrjyzs4nYOUaeiTIClM8c/HVE09TK72zSef7rJ6uEZshBuaW5brn92FImiczKMjybdlnDzV/HPrACrNPFT2wLGqHgy8YFmCbmgoOEvwukS+ttb38FoPMOzTPAfbwSdwlmSIIfl1MOYX4dxuhK0s5+FRfsWAxAW/WPWv4WHsPxuJVdTcoqGtkbBoO1A0yFuxtj8tT2ZmPoms6qog61Tlcr7eHzzgQfnHOQbF1+tRO/fnUVawyskyXcv4jJlDSvrp0U61mt836dOl37Jw383DClqN10aH8C5joJZppPkIiqMyadPKrVqKJN0hVAJxN2tjIWPwMpf97abJSps38ZtY5Neb19yZngQ7CxBT45Yohf1la1yt4m0DZbinSWE2Q55ZDM0rn4wwa57c06Yy1eOgEV1wvG5JNfgaBcTbwVgfjtxxVTtllR4pb1/xamir/JJM6Le+yP+Ve7Yjbxfyuf6pc3q1tkL/MPCr5PH2qr1lp2f3zO3NP+aI1ZJ4J1ZLHPcLNe3RMSDkM27xiEm4wVPh7r3S7tgch/2tbM0q2gPMW7XRqC+/btKcWSY6JE+fMOH2JIbQdCL/e+Xy/v7w0zkRNs55v08meW+XE7IavZZD7uaI6hicIylXaXB5xDcue0xEpFCDdZLWfSe6q+rYjAGFOHeDNa4rradjPGYQuA/vDtWtnLIg+7dObIXJmNTSGocA3S3MhYn2kY0fzP7WyRZRsbhUPX5R+7Q8biEbtyx8KUwzSe0I4+NiDLiXQYKmXIGZGn/TI5w66EvrvmTPAB+wgA1oWWlayhTwEf2hzJitxM6SXAT6y1R91WheRuAkN2SZd/3TRliFTghv0HsYLhHUikztTdxgxiNYEmbcs25hXeqdGpnP2TBoUm0/b0sV1D0srDuijU6hHsX0LfXXEo+C45BAlpRmJqUeMp6NPi0dgDmdImllMZVIbS/JqR/A/j/1qYwC7NxPpezGqgs3Wctnug7drDSLwOP+YETpTw7cYGe4NSyxmWs38kcU+bBlJ7xSnJkeArAXXY1NUyxFxSsNd7mejXiqbYpbN9JpK869q+O96tlZBRUCrZtRxdg6daIFNSdf1fhGm1Le3l8rnGiDPb5ypLb6C2o81D2O+efRF9ctV54ENYHXvV+tZtVC3Ww6G458VazjSBo/gY8QAr6ZD+Z9hs8dhm/U2m/VNHQSLllzuZoNmmQ08apfjplf0La7vCIuL9EnxpJDX2nZLSuuSAZkEcXaOBVyWFXjeMYGki99QO0A0zdsmPBBcq51hxIQ8/qCM/eadetrHAsivpGRaN/Jb5eONHXNIyWqtIu2UMV+nXnPjdQlnnNE/nPxRksN/fqsfar81gwatQBTRTekL6ddHFz3DVOptqqEO9hSYWZrSre0vmwg5m+/ZrH/3R4JKmvUzzOiXZUMoBTQN4jewVMPAXGf6XRc74qON4pjRcx1vL48ZzcEWU1xJmBl9Sw60TaRFG3ut71c1UlkpLaJjR+Zk9Do01pDNMadtYUM1O4PR7aaX32Vdngk/3N9VHDKkfXwiY0MuaPmCuPFOawPy6bQJDddXueEelOZ07UnPoZs4H1MjTy+nYk1Xd+InaLpvUiGW4ScestHyH0S6ttVLHrLR7NsX0ySVngg9x3q9PuFKHFRHGtWJFi99kjlz349mlmUzaGCFUu5tI8UomWZazpStT0uHmRxh5O5qowJY6caKLflbn2LublY2txjo+K8JuNMVkYhN1SP32oLKUM9C37V4mwvTZdQW/higd5vYJFX5xpbTSJRthjF0MC3bpSEKoY1T61XBIT5Srxt9P363jAAb7/E+y9+4JNl/qdKxtQnDPGJGbcYXPW/vC0qR+odlm6htGAGlaiU/Wsxhlr273Me/ZVtB3FzPoyL5rgG1NSKgGa3Qn7AlMr+rCzRp1ARQQCLcbqVzF2H3puP2bX8az5+G73wPAxjbb9AqQwk2Ef299o4aFILkpMXq17R5i8UWT+ng8Z5fycEG/PMZ+AUkUoH8P8yTcwLb8lDkVqa/AFnmUNYghrcQh/t7+1LPrcV9fg24a3VtJPP1b7MDVbdfPoq5N4ysGkf+PyZVL2C6te+qtSb99g3n1X7LyZ6/JMNYH+Az55fdM/PyFqVZTP2g+/ax7/cx6+JqauHcOK3KMefnUO8a3ddgKum8whXEobnbbaqO/7bSfaLIpqk8uOUQB2fRVpUhX6nLrK+NYIWOipI8CuM6rb8gwZ6+q/5vE7VPE2loFSKtBXo0U6hp7fZmfI1pRKj8lctIeXeVzC1vBMwWGlmwMSp1uGDTz81HnDi6ESXWNwRozRGxtSz9+di74qF2Nyb+5LyTnsKhDN0C0MwCtrmXsfGBDY/slKw3VBb+eRRmXjmfdXCbLXgGye1kLsnzW0ztuYRpYVwvbJW3rr1DrKQEhjEcNH4/GPfjN5ibjnB+njPfaB+eCDzDNmPQP45sPQ3qumJi6+VENssdQ/WuZxbNLOvbffXwZR7QU8uvIIAcQ3U6o+6vYG3A9mz/sYjs6RP0IG8OI3ytDaaK6AuyD+awY1rjE/+Jh8IPPiXsO+e9c8JVAqPffMja/j8qchySP0g2SJv1ouUbh7mCLtBLfLumS7p9yeMOiE8rlsyzRAouuJxjn88z6/XA6ewPskKfE+4gcPoOh167utRaY7SIOhToO13MZS7g3aWwizT7pemMObA5ng68Ao97vW9+A2vfIv7KWPkWCIeZfsAvuXp85bKvbty5Ha/zilHJD/dq6gB3RFKPjfNYLHtK2Vy/90T9sDcrdSL16cO3gwzAjUfXfm1Ysurfw5x/UJ6bwu8N86RUewO/OBp+OGuq9MigvsgNWd76ciY9t3RunM6v3Iv1PbUPyMqQ8XCt1w3ZrWDijA58hM+Wv3tvSjqv1qWfwQG56pVr2acTJQknV7reyQET39N+1rk4qiVZa71vL6M/Plib3ZzM6qBtpaeBnWW7j0CONvt01o8w4K69dA9CD6nBUblhbzWGJ9gsrtfTXWHsXtG7p7qDKlFsYni/uDDHXAONY0p9htutfadstbLmujKmHNV2FttFnHsUD0HkFJybng29QzSUv4yb9kEUZR3E44l3Hl0q+BkrMoR71r9I1b3WVcUiCHaFXIb0pC0HtHrK7BoX0wMZXLauBllc2ynUcxPAxa/KNJpjgAvyprNC9k8MZdpHn1teqpQHGtFUbdnX18bXsAB/iakR88fsNspwzePSghNunl4oRXW9jAB1yNxK5m/vSXnmU7dHW1AwohlfQzd7G0DhPYdDVsxrn+2igm9bUyDY0gWG9W4DXzR4PnlRurAy68bUaIpTOM/KsdElOTTn9KDaIrOsn1zDNOpU4+cWsvc/F+l5FsAdsDenSN85cNOyDIIGbo9ngmcczejTbnYy9xkoqEywrFT71s8uwF1YyrPyW83c0KJQizXgbCvySk8tlbL5PFqzZJ3/ErzdmD7pV36c26IA8kD3ga3chZCOE1uXZMwi26ImY5Vjhq3c3J9boaTyeP5X0N2GSl1D1GlPfiJv1OKB12+iiTJ2M06PWWIKfBF65Da3wRTTRIiR+ZMDHnME+Wb6pSQzrg3xOTs6M7XdAMaW3SvI1q/bKfbPKjJ23I/K88t3X9yW2cHvQ7RC9AVBeYn39+rp9xnpAzdeTpKO7sZzQBJTydbPoAg6AvJnInw4B/4wB+AckXg9oStEMPam4F/Nml+QrISC+AqmHMal1X5HnZoIn3ziAaTcrd3Um0HgALQA+rPdj+TfPdtXDs6W5Aq/A8jcTzaOHLl1B5E/P5lnwcrXomr9mbZzJILaFOOdi9oGvtGtjAN21/Q/G/H3M0nxxVL58ATtAD2HQQ5F2m64ZnoDi0eOknMSfHrn6L0wa/RiPY2pJjjyG5f9t3My3WGCScmpIjyvs/QKyTu23k8RggDhLs+JE0BrlbXbQKCi6TVqPQn0cUJYTHHqb41DVWjfG+66EV5Vj2qTcj9E4FePxUvbYX0zItgI74wNCzje9uk+e3cGuXYI8+ni2SLxJw6SCytYj17UnUF7j9iUcxHzhoblyDUek6I8sNAKKTv0+jZv2KkZiJQab/sBCuypI9j55TctjyCjmLKCJWO6fGZojZzEfP50NmLqgVFcR6cFQv2MvgPry2Sbt2j0zJbufzeBrb1T06E0A6VYP4GzCwBfjDZw4LHH+vnoA+rMpumfuQ1YJ7WFY0EOeNDKr8aISVtcOYR5gjP4Gj24Ph3l0YiiXm+rZrd7TbKwvWMlPrlSRV5f4GSt2khQ0aZo178mmZzv4JskN/Zs4u09/VOkoFnaciA/+GWb1phAfKEU7aJhYFYC+zKReojKB/tyK3tcNHrqKVyOLa1hToBFE/dGGZh1CNCUpl/iehf+zd8zPROw2UBSkZlbV6ITQGly+n/sajLF6JFrhUKRbJV3X0useD8VTl3XrwsvtqHI9yFnXCeqwoYtIdcZOJ4aMNABAN0k38MA3e9YGki6k1Z9BaWBwruK1EVfQu9sl6ua0xYSMEUMZIEYeBTmCX5jykyxa1gAC3STRwAXf7KEFNB2jdYwPG3CbD9i8mytuLHltnsr6SwMf/HSIBjig6d3t6Hs357k6KnLwXrZQYBD8bEGqF9o5CH4vEDVbihwEP1uQ6oV2DoLfC0TNliL/HyOEvS6Nh8GPAAAAAElFTkSuQmCC;" parent="F-XrtWiEZud6chYZasPX-2" vertex="1">
          <mxGeometry x="105.05000000000001" y="30" width="71.9" height="60" as="geometry" />
        </mxCell>
        <mxCell id="F-XrtWiEZud6chYZasPX-4" value="" style="shape=image;verticalLabelPosition=bottom;verticalAlign=top;imageAspect=0;aspect=fixed;image=data:image/png,iVBORw0KGgoAAAANSUhEUgAAAKgAAACnCAYAAACFHRdhAAAACXBIWXMAAC4jAAAuIwF4pT92AAAOjklEQVR4Ae2d7XHbOhaGwTv739kKoq3AvhVEqSDqQEoFUSqIXEGUCiJWELmCK3VgV7BUBWtVoB3YL2VYOgcASZAEyPPMeO6dWJYo8OX5wgGQnU4nJfiR5cUHpdQdXmz+v4tnpdQjXvN8mk8eZcj9EIFeYIhwaohwopT62MLH7Q3x6p9CxPue0Qs0y4upIci7loRYFS3cHUS7O80nzxFcUy+MTqBZXmhrOIMgv0RwST48QbDb03yyi/9ywzEKgWZ5oS3jAsKMwUI24aiFCrFu0/0afgxWoLCUC/y0JconxJAuPrX0+aVYN0O1rIMTaJYX2kouA4lCx4IFfh7LhKZJTIiYVyHe/YBQI0QSdlBKrSHWwcSsgxAoMu9lQ2u5L5MSiLAIfJlWLqoH5X9var5drpRadf0d2iBpgRrCXNa4mdEnHoidpw0Suj2Emqz7T1KghjB/VPxTLcoNRJmUdcF3LqsPs4oPZLJCTUqgNS1mGZslJ0oOQ6yzipb1QY9dSuOQjECzvFhAaL7CzIec3ZYY1YoqD+0vWNTok6noBYo4bO2ZlR+NTHYQ1rIKeIhXnoniEdZ0E883uCZagcKN6cH+5vHyUpjrMU8LlqCUtfJ8qHV8uoj1gY5SoBjgjYclEGFaqCDUI1z+utcLJohOoFlerDyz83sRph8VXH901jQagSLY19N2t46XJpeJxgIeflcydYRIo5jnj0KgmJ7cOAbugIEbVTdPaGAINh5u/9dpPln2fr19CzTLi7VHIpRMWSQVPI2CntiY9jnuvQkUWfrW8SSL1WwR3IONo9h/hEh76fTvRaCe8eYDxClWs2WyvNCu/KflU3qrmXYuUBTedw7X8jX2AvLQwH3ZOjL9zu/LX11+mIc4tUv/W8TZPXDhd/BcHL+RM3RGZxbUYy6994BceMWjFp2f5pNFF8PViUAhzt+Wl3T2hQU/YrlnrQvU44tGUW8TrvEIyVoXaasC9fiCkgxFTt8ibS1JEnEOAyRPU5SaKOYoU7VCKxZUxDk8+rqnwQWK2YmdpQgv4kwUD5F+Dj3r14aLt80QiTgTxsPdbyHiYAQVKIq43Nz6vYgzfRwi1ZZ1Ay8ahGACRTmJ60rSmd5qeLdrnECkXOZ+iwaUIASJQR2xyf40n0yJfxcSx1Hj/h5iCUljC2q0bFHiPGDttjBAELLlzDf7GSIeDeHiV0xSpGOUmcytDxsU6Z+YL7ltGo82EihWDXJx51K2sx4NMyZp+ggDVpvaMSiejEemf1CaP0YGlpD8Yb517fpoEwvKLWM9YOWgMCKwCvQX841rl55qCdTh2iXuHCnoSqPi0dquvq4F5epc9xJ3jh4utPtWJ6uvLFB0W5OuXYrxAgzUPTMQleuilZIkxBEFU/MM3ijQJsZxNMGm5Vpkm5JnciTQlfoxqgpUv/Gc+FUyWXvF7Rxj4oDNK5LoZ0Ce8g/xK+1pJ97v4ytQWJz/Er/S9a9JEpuhupefpEAy+wVkebFlNoW49w0Hq8Sg3BsmscMcur5TF6fCDd+F7BhqEa7cuPS9fi+BwnpSrj2JxAjuxrZzRmrcNp2h6QLsQEjVRm98a+VeLt4SeybRgJzlRWHZMcP3tLi+sMXK/4l9G0pLYu0VGv7L4wNs1jMFcU4ZcZbNLFFXHhzbJa4sdcco0AJEI/vlRhA3uHZr6cnHxXOmOJWaJ9fuN02hLAYLOWNmaFLps10zzSRON28VKMwz9YQmYT0BNXvxkFJdEW6QsjRJnNyM66f08hGVFRaXBeVONEt9xijF6VjS2odepNYinCtvJFBKiOUR0EKHWJKhFMpN5fVT3fefEGeTsEkSnkzKhQzquOc6IPFa4BhtH55RLx77TtFcNWjJxaO2LJ4LYKM7S6dLLFN4Lr5keZFUv0Jo9HfP8uKJWCK04PRmc/FU9ruX418aNWPLKgPawN2gI/8KUqB4MZUcycYLQlO4/MVfoJbaoSRHzUKcUYdH6q3kRG0zTmqOi0GpF+djT47UWxz1uUaRPKmezpahjr55cfOXJ9xdCdTi3sV6AiQ6Y8/Ia6NFmOVkKjO71Bnl4jnLIDdECAnl5q+05yvQB3HvQmAoj/zxcmbsnUBR0ae2sRHrKYSGCxnfGchLC8q5d4k/haDAIzs7tC4FSjUeHKQ4L7QE5ZkrW1Bx70JbUNq6MZtHLgVKxZ9SuxPagjN+Z0N5FiiaICjEggqtgDj0QLz3OdT8i/pHE5n9EFqG0hcpUKq3kds5VxBC4S1QyoKK9RTahkuUXlYKuCyolJeEtuE09mIwTYFSyzskQRJaxVJjfzGYLwJNaGWgMEyoXOdNoNzKQFnkJXQE1Yj0LgZNYumqMFgoN/8uBqVcvJSYhK5gk3Hbqk7p/xT65KrMJAh9QVnQW+Vw8WJBha5wungqSZJZJKF3xMULUSMCFaJGBCpEjQhUiBoRqBA1NoHK9KfQO6VArV3NgtAXpUClKC/0CWUMX46tkRhUiAF2osgmUO8jkwWhLUqBUo3JSRwSJQwCthfE56Q5QWgbp4u3rqwThJZhdfYiUNfKOkFoGWrL+Z26cPHsyjpBaAvLnmBXMShVCxUXL7QNaQTLPcFMgVKZvAhUaBtKoOcd70yBUtOdHyWTF1qGcvFnLZoClUxe6APrpnVngVr2Aa16opogeIEtl9gMXhGF+r0IVOgQzjuTLl4xidInuWNCS1DG78k8NM5HoLZalSA0wZogXQnUspudCFQICuJP5560VLMIFYdy58cLQl28TjWkBEode3hrHq4kCAFYEG/xdHlo8dV58ZZtv7UVXcudoYHLOk9qyOa/PJZDi6+M45VAdT00y4sDER8sRKDXZHmxwti8Gy8c2J8rpVZy1ukVXMh4JVCuYVncvAM9BZzlhc44f1hWH8x1VprlBeXOxgw1HgdqsogT6Ib5dxnot5UGO8ZNXaJnSn5Lqe6VKu5dcQKFkqkzFEWgr6w9xWmylcabF5bMv5NG0bYmiYo3dXfTqEtOsADzGn96Iw/4C1z2TvaC2ARKmlwZZDbA1wnRv0/zSaaU+l7xb0cBYnGqOYQLKXmBIvN8IH71ZeTJEtXgoAP8RVnDO80n2vvcE68be18D5d6PtQQKuLLSquqVDQjq4aQGWOqgBkgSyeTosjhvYhUois1UsjQbccBP1TQp1y1Z+3s4o2atrfvszUS98Y0lGxs6VDCva8Sb8qFFIkmND9XnMHhgPanwZm9plH/BKdDTfLIpdxq7YDlSK8oljzqz/1+WFyel1B8mGeD+duhw1tMZKvrubkeZ4VFaUSSPeY0/tSYDQ8VhPZ1xehWBUlb0x0gz+iUTm9tY2JKBAVMr9izxEigGVjJ6gPGYeR64qx/sr6f5ZHTuHbE4Zz29xqPKBracFZ2PcZ4Zwf0U9U5qXBRCgTvE8Y1AOx9FzJ1SjY0a1Q9Koq1Glhfatf1mLiSl9fNBHihYUj3YK+IhfQzs0snxjbWVD22IVJeXV+x5fp/T6VT1gx+Zgut3zKBEBQbqB3FNX0NYti5AtaQgKgN6Djs6w4C85JGpZPztKi2Z1NmjnsvcV5EmTFyso1vgVrGXymCZuZsda1y7Ya73VxVxqjoWVL0Omh6YL8SvtPmOLh7N8mLnmAePtYDO7byhEPfexebiEQb+JH6lr3dSNeypK1DO5agYXb3D5aRKauNcK6SqdQyNkRxQrCwZZy/AygxpUiGPMd5HyEGJc1833q99ThIGiHKN+gI3scV2GKDPlpJQKtzr1r7YrhXJKJU8H5v0EDc9yGvB3PDbGFeAorwxcdQuY+UBGXB0EyMoyFOVEs2ySZxcKwZ99wavF/eH+XXUpRyEIncR78X/jJgudE01GI648+E0nzRaRdBYoOr1IjeWdTqV6l5COjhWtx5QZWj0YIU6q3NpmZfeyXr6wbKxrG6dhbD6QQSKC+Hi0RtZcjs84DWpWrhCCSyI1wx22jEuiMvWbmFJRaQDAMV4LqQLWgILehw3Wqio1YwKIh1dw+7QwNJhaqZIIcwLWm8OkiRdvak9acpjrOMJbiBOqptNhUqKLmlFoMo9/y0iTQyHOHXuMW2jWhPUxV9g6zifw8oKCdCXOFWbFlT57QL3hC83xrU6SeAQp+Zzm5v1tmlBy/LT1GJJJbuPGHg5mzi/tr2TdKsW9Pwhbkt6QGFXZpwiAPdr7djFr5Np7E4EqvxEesTS3LFubhAFmPXbOu7TrKs9+Ft18SYe7l7POP1B25bQA8byEps4p10eENGZBT1/oJ/72IeayxW87wu3uLCk1Wydva6uBXr+YHsxX3XtSsYKXPrGsWart2pLbwJVfiUMzS8c5SLWNDDo5eVWYJbkaDruZfx7Fah6axreOQbpgARKrGkAYDXXlm6kkt4X5vUuUPUWl249tsju9WkeAuhEWjkMQjThVRQCLfEI1BUGbxXpqsZoQYbuc3xOVAlqVAJVby5/azm9reQAayp1UwsV3HmUD350AlVvLl9b028eL99jYCU+NYAwV55nOu0R40e3EVmUAi2p4JYUBnk9dotaUZjRh0tRC7QEsenSc+uaA26Q9XiToYGHeenhyksemq5Z74IkBKr8Z6BMjohl10NtQsGYLCBMV8xeklRIlIxAS5BErSue2vaEgvR2CGe3Y4JjVsFaqtKzpLInaklyAi2BS1vVOF6wFOsuFcsKSznDz7TiLn1JCrMkWYGWQKiLmicQHzCLtYNgo7Gu+F5TiLLq0d8qdWGWJC/QEmSvS4i17j6gh3IvJIi2kz2RIMZyjyjuTEtfHhB3D6LsNhiBlhjucNnwRpvsjY281MVBsc9cqIBrMfdK1f//AUIsf3yTGxsHIyFMPsY2GZxATQyrOgskhJgoqxTbIdd+By1QE2T/iwAutE9GIUqT0QjUBJZ1avzEbF33EGUyVYeQjFKglxiCvTN++jhw4clM0mSVqwiUBaKdGIlNebxOk8TmaCRaj0i8drZEa+yIQBuC2Na28US023dHj1Lq/z0Fh0PVeMozAAAAAElFTkSuQmCC;imageBackground=default;" parent="1" vertex="1">
          <mxGeometry x="258.76" y="20" width="80.48" height="80" as="geometry" />
        </mxCell>
        <mxCell id="F-XrtWiEZud6chYZasPX-5" value="&lt;b&gt;Super StarWars Mobile App&lt;/b&gt;" style="text;strokeColor=none;align=center;fillColor=none;html=1;verticalAlign=middle;whiteSpace=wrap;rounded=0;" parent="1" vertex="1">
          <mxGeometry x="221" y="100" width="169.76" height="30" as="geometry" />
        </mxCell>
        <mxCell id="F-XrtWiEZud6chYZasPX-10" value="" style="shape=image;imageAspect=0;aspect=fixed;verticalLabelPosition=bottom;verticalAlign=top;image=data:image/png,iVBORw0KGgoAAAANSUhEUgAAAQcAAADACAMAAAA+71YtAAAAyVBMVEUcHiL/4wAAACP/5wD/6AD/6wD/5QAAAB8ZHCMSFiL32wAAACIeHhoaHSIMEiLPtgjGsAhxZBP/8AAABiNbUx4UGCJhWBgADSP/7gAAABoIECMUGCNZURVyaBLy1wDjyAvqzwCtmRIAABhJQRPXvwVNRh2jkRPAqg9UTBmvmxE3NB0fHxqQfxY6NRN/cRZEPhyYhgs2Mx9rXx1BOyD/9wAUFBdSSg+3ogkIDhYlIxM3MxODcw1COxQyLhQtKx0pKCGQfw8eHRVMRB8YSfXFAAAOW0lEQVR4nO2cbXuiOBfHIRDkoQGFIootYEt9mo5aO7N2x1nbne//oe4kJyBYO/vmHuuL87uu3U4xQvJPzsnJSaimIQiCIAiCIAiCIAiCIAiCIAiCIAiCIAiCIAiCIAiCIAiCIAiCIAiCIAiCIAiCIJeN7XQUkW83rwPtwgwusqNbnCpqnyx6uEeTd4VO3vFPEg+//zWZ5lmW5d1J79Xz69peSb606sK+f5EXWbPi7OULFG21prr4ro3qHk2+v3S8Zh9Uj7k6lxBs+HXrUtMwLI5hUr27IfBsFheuQF/FjfLDEi7Oo8bFdKfLq0HSuBj/1FVR7+iZna57TFaU217s1a32e/LL+pT831t8EudurpuWfoBrEbxCczqBKcShj43W2XfUkooVzQp2tlBy3BSnM5cXLUv3jgaEunEb3gfZuB6Mfk8+x+yeRwf/a0abKkgMaymfnqxN+WuzLrx+UIi+NkbsMJM3Ma+dwzX7JVN3psu0/dROYBw/E/qAurOoes77Z/854r+zukai4+r63IrqODP5oZU16sJ7/n3j4h8WFGxac3prVrqWR435SAd+C30Dg++sOrC7EupqmabB7dEwjao6K96zdgw9ajUcxF2h1DIalpsuodJBs9LDurFW28McdGjZRV12JIqcVYfhbgBt0rcbnxDyZVkalurChNu015X1NQ9dz31fVeHiYPVqkJhNRxL/cxhf5iRqPVfpYBV5TWGZ1ZOlVz2nDkx1rlGsiJyz7JTcKEOhPV9MA1CZbV0Z1fOy437F9X1ycA+LRrd3lHOBBrfCkkoHOiM19mqiusDsO2fWwfkLhr2+OJh6uocOl2M8/kdWxsqTqus709qyzV31rfir/I7VmkLupE0ZXVB14zc+qnXoH9yqHZM+PNmUBndOHdIdff8s8gZt1yPe9o5sjKU/q45mL0U92A8Owr+V9zG3zXmlD/f+WVjvm3NCB/HkCTy5SNl5dVDzYtt64x+qW4Rv87ZGbSTyw6+VWYj6xmqw80ChVUowlAOHD5GxKZXUmoZxWgf7CxiRu7A/R4d581msU/Dg0jAGN7yS/hJ6ugoeEzlYjK3sZFrNAkPpHiy3EVHYf7vimrkmD/CMt2akeVoHNfp0czb6FB2457dbV6dbznTGWxkvpNOvAwCYC80N/FDTg/1iNhy9KqhMbhF3wDDyqBFTfqRDCdOTiMbOqYOya97dXrNCCXhw0dksyeXwthKpFLsTNmNZvhSwqqMKMc11o8vvZJOMMmIJWL0xazziIx1y61N0iFcqGKDlfSdyThXxlOlDjZ0baew5gZ8uRBDKPViNoDr+CdLwERP/MN450Q90uHNhqjq3XWheqWZBwyon/Y6XxMcrZFUdcyL7GmICcxx1wPqhj5V7yJLDlzvKO3KPxyL5EMtND8Z3Wgf/BvR0n87sJ3n/0sr5G6apd99+OF7aCoHtvdtwEEPZJHrjeOAgpPOz/5ajqhln29CzEGeDb22tR07qEN/lMF9IV3LedRaZVEKAFrSYLn92oobb7KjedOxqErDcK1vNG0Ej4mm2Uy2x4FL8rLd8rXZKB+YM/w3Myltp59aBkXF72W0ZVC8mr6RWIlJuTvquPrTeU/YP60uwAZ020lYwrVgG+A+wPquxWqt0uB9W3N2MXRWamA/njqulEL2MthfBlmXSuT9SBZy/wOMJEwCHKOYFFsvZUHp2MBbuPOubqji7aoMKW81xPa9W601aM6BVMgjC6nPrwGsZP+YmNdrJGJrv1ZBlw0ObhjCJCnfuyXBRSFJFTI1UlFpiVfElG6owpU66fpx/0I0MorGz66DZSfK0m7qm2dTCrCsNLtEqNNv+Lv+V+azqY2Eiytc2fR4sYw9ZGU+ZQb3Y+lgHM3uGQufXQWTRU0Ie3oLMNOv6mVVOpUrOreJUhl1QM8hDWLrDOtKBWNkhqK5MaUtGsWAUQbx2SNN8pINByyul1WfoIBklRJuty9pOqw4e3cMg36WQbaGw3IZwmU+h4B6aqShYYunG8ue94i8IkMx6YVblo4wGJjWD29pBf5oOHJtr8bqG1EndMpsVKjwYQtNhXvCkKHypeidXII11lP0vtLrZSjXGqsi7ykeVDbqTW5v4dSh2Rh0YbGGRVqrIJotCLX/38AEk56yM/BQtrpItsDbhQQG4B+uhmmC0ZHdYm7epU3kn8lGEtLfSzqjDMJAdETy1t4zSezUg1HpBJefonfxZrRPsFxlB6MM1uIdDsvKu/HgyULf8YH3R5Iw6dFwYtL/io+tq2aemvXglRz7tSbOvky2eLGXeyCY1MpjO/UfD4SDihekAOTaz7x9dV7VcquuQHjHGuZwhqtETQVA1AadxW99DhZcWbQOZUBfSUpelQ5WVnx89Sm08mFUtITlnZbJedbLF2dD6qmXUGzgMlliWvrlpcg+pJrUIuSwdkkdwcfq+vcRULbEe1GWVroHBU+cy1UoUMgZlnW1ShbkDdZpAmlI3IPq+LB3ihXKIpdcQgg1Vti6rZnuVP4Wyh6p3Dv6wkemtBlNzS0ertwgh+3thOlSGoZvlnoygQ23/bgf7UIcEEuvk9Q6dXH8DaiUqy9apqGorQz86t8Aq5zsWd70wHUZVXs7QJ/dDEUsM7/qBcmnGcz1IVHJOb4eNTr9W57C/W+1iBcfVV6pZmVi3XJgOhzSMZVpZOd1Oy6yK/ejkUAF/U2Vrmul39uJax+pUO3yN+UNR7XzI2fjSdNBIUCfmIAqulpxmlxyyjcolipr/aHgSr1otHXb41BLLcuO2WYjSYFxSs4vTwfa774+BiMk/aAW5lUu0suYuhFqJiv3dqvAQ9r+ME6d5kjeQyOIL04vTgS8ndu1jQdJI9Lf2oqNyie32jSA539jftV/U7Lo5NgsxqJT/5Yuty9NBY8nVOKN1DkaeUppfRe38vXMTyqAwbB3wYZ4LV7dVbJW+yXKDzH9nFsKMBvChp3ml/Gf4Wx3krcJ3DvePYZOrzbx0TVE10y3nmy/kuBXMvgZeW/rED3C1XqjZK7jwa6S9x35WN2H1F1/fn6ysS++hyNFJmj+K7UfEd15//Pji+MQ71ZdMhYVH9Y7hamN7Fy6crrv6cHT44scy/Met/hzMtuP41NFXBEEQBEEQBEEQBEEQBEGQP00aVaRp+kGZOPIikvzmzXMb3l5gCST+nei/8p0sgo1CRz1anOKOzp2bbZLu5mNgvnx7PC1EspqXebB+9TVt9C63L7AXc7F9ya4mY5GLdvrz32TmBcyZr8WWDy8pn73bp/ZiO/tEIaKpm2UuFf8bF6c3T/yNQYNpHmareDQrVieEsDVTnKp3HigVb3eRqfH6m8EjbnkbUvHSZzQeZBw31Pte/9u7TeIzwvw0Ib1wRpKUcB1GanOBjepdBha52SshpGcUJO2F8lR8DBsMzNaY3NklpXhZLVlbhjgZQtzAk3eQ78gyzY6Z2JZo9DYpM0sczI7G+j5KEnLtZk4//EwdNMZYehv2fcaEDrPNtc8bGpPrzXWiDtbO6JsnTujPwwfGFftiM7LabB4IY9pVkszEccvkLeQDgZRBmXssfg7fkpE32/SfIs1+1cjrTCP7/mZVn7sfPdDHUrzdxHVYxLwGZE1nN5+rgyZHqdhx5DoEYRgWq5GzzwfiH46q9ITwrnVu5l8z3dKzK9I1w5B2k2ieb7JQbP7Hq3ASsQ6drK2FnTzSWboQd7DeoiSfrHVjP7HC0Kx3i8mcJo8D7lK4Ds9i0KTLwfXl6JDT4hfp0dLTMr1HbjI47ceSgm5nexKlUXqzpruNNx6sPW8dPpKtS8tH4TCYn5XE54NlFS5TEmSdKHf7RAsGi06R0e3yNpwnnXGoTpPYV26X2Bb3RlyHp8T3U+5RVp9sFw0dCv05ZWTqJruwT+zogUK9R08lDfVy8ovXexP+SkiRE9sh+pRsB1MPplMyNRMuC0vdKYn5f9q3Nb/Dc3jrFXRJyCN9iWKvqF5QWXI7JF1rEUdja9nr9W6DsEsuSAfh9KOJRboZcUYjouYP5kdPu2k2oFvR5Q+xvR8lzs8d5TrQ6oAUv8WG8HZyFcn1YOnb+yTVZtvB0uOiaX5vkN/Gnq9mEZIXPB65DtdRNDHhtOk28i9IhwB0iAJu/5xBLjwb055j+aJGyS1B6DB66uqhUVhcB7c6KG8v9PEzXaa8qxfrgW8nm9Ic6HwswCAgj9kgLMYjqUO8om7BMTMi/OR34YMJ++z5Qnuvgxfkv2aclTw6F23h7934jFuCmDdZpq9nCy/jOmT1CwNeni/DvR0/W49BTpxrWiwf9nsxHsQ5RELih50Y/KIomRviBep5wK2P6zCCPxZ1gTpEW9PzRw4Be+axTl/4iZENOiR92uNxhkdbOkQTtxTnhEieZ5MomfC4IObe5FbqEE0DEqdkK09X2ppbEs/zyLPVJWq+0C5Sh9H1YMoDp0c5JWrxg1k88F+1brjkOqzIjK75r9NBSwfnxpR/PSmaUDpzkjW9JuSqGIAO3la+chG4sXzFSzWYBNbV5KJ0WH6TOmRShzHlIzcs5mVYwhlCbzcwi6DUw6nnXIdZmeaDYJu5JZ0c/IPGPF2K6dyE7hU3D9Oadq3StfrcfLR4oZvdbfFNvJfDktyClzb8229vE/Ogw6fG1QL7eSJOAKaPoiKj6zce3/W6ebmrjlJGT+sgL+fX/Pf0dj6200lZzq+e1/3N4yFWTpdvV6J8tBbvLfirbV6uyWb9/NgT6tj8K9trYWZMW1evckTr25u3aiXCK3Fq6XJWbAgCUlm/kXhvXfwVobTxuXh/SEaXfpQwO+K/2XHiOM31qa/ed0/kXWL+jURzEjuVXxNfIRCns6Tu9sR3Dqt5+3cLewRBEARBEARBEARBEARBEARBEARBEARBEARBEARBEARBEARBEARBEARBzsP/AJdrRT64/eVNAAAAAElFTkSuQmCC;" parent="1" vertex="1">
          <mxGeometry x="252.07000000000005" y="560" width="95.86" height="70" as="geometry" />
        </mxCell>
        <mxCell id="F-XrtWiEZud6chYZasPX-11" value="&lt;b&gt;SWAPI&lt;/b&gt;" style="text;strokeColor=none;align=center;fillColor=none;html=1;verticalAlign=middle;whiteSpace=wrap;rounded=0;" parent="1" vertex="1">
          <mxGeometry x="215.12" y="630" width="169.76" height="30" as="geometry" />
        </mxCell>
        <mxCell id="F-XrtWiEZud6chYZasPX-14" value="" style="endArrow=classic;html=1;rounded=0;exitX=0.25;exitY=1;exitDx=0;exitDy=0;entryX=0;entryY=0;entryDx=0;entryDy=0;fontStyle=1;dashed=1;fillColor=#647687;strokeColor=#314354;strokeWidth=2;" parent="1" source="F-XrtWiEZud6chYZasPX-5" target="F-XrtWiEZud6chYZasPX-6" edge="1">
          <mxGeometry width="50" height="50" relative="1" as="geometry">
            <mxPoint x="606.12" y="200" as="sourcePoint" />
            <mxPoint x="656.12" y="150" as="targetPoint" />
          </mxGeometry>
        </mxCell>
        <mxCell id="F-XrtWiEZud6chYZasPX-15" value="" style="endArrow=classic;html=1;rounded=0;exitX=1;exitY=0;exitDx=0;exitDy=0;entryX=0.681;entryY=1.083;entryDx=0;entryDy=0;dashed=1;entryPerimeter=0;fillColor=#647687;strokeColor=#314354;strokeWidth=2;" parent="1" source="F-XrtWiEZud6chYZasPX-6" target="F-XrtWiEZud6chYZasPX-5" edge="1">
          <mxGeometry width="50" height="50" relative="1" as="geometry">
            <mxPoint x="591" y="180" as="sourcePoint" />
            <mxPoint x="641" y="130" as="targetPoint" />
          </mxGeometry>
        </mxCell>
        <mxCell id="F-XrtWiEZud6chYZasPX-16" value="" style="endArrow=classic;html=1;rounded=0;fontStyle=1;dashed=1;entryX=0;entryY=0;entryDx=0;entryDy=0;fillColor=#647687;strokeColor=#314354;strokeWidth=2;" parent="1" edge="1">
          <mxGeometry width="50" height="50" relative="1" as="geometry">
            <mxPoint x="261" y="280" as="sourcePoint" />
            <mxPoint x="261" y="360.5" as="targetPoint" />
          </mxGeometry>
        </mxCell>
        <mxCell id="F-XrtWiEZud6chYZasPX-17" value="" style="endArrow=classic;html=1;rounded=0;dashed=1;exitX=1;exitY=0;exitDx=0;exitDy=0;strokeWidth=2;" parent="1" edge="1">
          <mxGeometry width="50" height="50" relative="1" as="geometry">
            <mxPoint x="340" y="360.5" as="sourcePoint" />
            <mxPoint x="341" y="280" as="targetPoint" />
          </mxGeometry>
        </mxCell>
        <mxCell id="AdGYSi3JHzEAW-MP-21N-2" value="" style="endArrow=classic;html=1;rounded=0;fontStyle=1;dashed=1;exitX=0;exitY=0.5;exitDx=0;exitDy=0;entryX=0;entryY=0.25;entryDx=0;entryDy=0;fillColor=#647687;strokeColor=#314354;strokeWidth=2;" parent="1" source="AdGYSi3JHzEAW-MP-21N-1" target="F-XrtWiEZud6chYZasPX-10" edge="1">
          <mxGeometry width="50" height="50" relative="1" as="geometry">
            <mxPoint x="201" y="400" as="sourcePoint" />
            <mxPoint x="251" y="540" as="targetPoint" />
            <Array as="points">
              <mxPoint x="201" y="400" />
              <mxPoint x="201" y="578" />
            </Array>
          </mxGeometry>
        </mxCell>
        <mxCell id="AdGYSi3JHzEAW-MP-21N-3" value="" style="sketch=0;outlineConnect=0;fillColor=#1ba1e2;strokeColor=#006EAF;dashed=0;verticalLabelPosition=bottom;verticalAlign=top;align=center;html=1;fontSize=12;fontStyle=0;aspect=fixed;pointerEvents=1;shape=mxgraph.aws4.quicksight_paginated_reports;fontColor=#ffffff;" parent="1" vertex="1">
          <mxGeometry x="282.5" y="470" width="35" height="44.03" as="geometry" />
        </mxCell>
        <mxCell id="AdGYSi3JHzEAW-MP-21N-4" value="&lt;b&gt;Pagination Processing&lt;/b&gt;" style="text;strokeColor=none;align=center;fillColor=none;html=1;verticalAlign=middle;whiteSpace=wrap;rounded=0;" parent="1" vertex="1">
          <mxGeometry x="215.62" y="514.03" width="169.76" height="20" as="geometry" />
        </mxCell>
        <mxCell id="AdGYSi3JHzEAW-MP-21N-5" value="" style="endArrow=classic;html=1;rounded=0;dashed=1;entryX=1;entryY=0.5;entryDx=0;entryDy=0;exitX=1;exitY=0.25;exitDx=0;exitDy=0;fillColor=#647687;strokeColor=#314354;strokeWidth=2;" parent="1" source="F-XrtWiEZud6chYZasPX-10" target="AdGYSi3JHzEAW-MP-21N-1" edge="1">
          <mxGeometry width="50" height="50" relative="1" as="geometry">
            <mxPoint x="401" y="581" as="sourcePoint" />
            <mxPoint x="462" y="500" as="targetPoint" />
            <Array as="points">
              <mxPoint x="401" y="578" />
              <mxPoint x="401" y="400" />
            </Array>
          </mxGeometry>
        </mxCell>
      </root>
    </mxGraphModel>
  </diagram>
  <diagram id="wrf1E05ftdrrGZbozaqE" name="Get Characters Sequence Diagram">
    <mxGraphModel dx="2099" dy="1913" grid="1" gridSize="10" guides="1" tooltips="1" connect="1" arrows="1" fold="1" page="1" pageScale="1" pageWidth="827" pageHeight="1169" math="0" shadow="0">
      <root>
        <mxCell id="0" />
        <mxCell id="1" parent="0" />
        <mxCell id="wY-9QU6Hc4VhNN35h-ed-2" value="&lt;b&gt;super-starwars-eapi&lt;/b&gt;" style="shape=umlLifeline;perimeter=lifelinePerimeter;whiteSpace=wrap;html=1;container=1;dropTarget=0;collapsible=0;recursiveResize=0;outlineConnect=0;portConstraint=eastwest;newEdgeStyle={&quot;curved&quot;:0,&quot;rounded&quot;:0};fillColor=#d5e8d4;strokeColor=#82b366;strokeWidth=2;shadow=0;glass=0;" parent="1" vertex="1">
          <mxGeometry x="200" y="-80" width="120" height="4440" as="geometry" />
        </mxCell>
        <mxCell id="vON2dF-ep-lUM6U2tdR--12" value="" style="html=1;points=[[0,0,0,0,5],[0,1,0,0,-5],[1,0,0,0,5],[1,1,0,0,-5]];perimeter=orthogonalPerimeter;outlineConnect=0;targetShapes=umlLifeline;portConstraint=eastwest;newEdgeStyle={&quot;curved&quot;:0,&quot;rounded&quot;:0};fillColor=#d5e8d4;strokeColor=#82b366;strokeWidth=2;" parent="wY-9QU6Hc4VhNN35h-ed-2" vertex="1">
          <mxGeometry x="55" y="60" width="10" height="80" as="geometry" />
        </mxCell>
        <mxCell id="vON2dF-ep-lUM6U2tdR--158" value="" style="html=1;points=[[0,0,0,0,5],[0,1,0,0,-5],[1,0,0,0,5],[1,1,0,0,-5]];perimeter=orthogonalPerimeter;outlineConnect=0;targetShapes=umlLifeline;portConstraint=eastwest;newEdgeStyle={&quot;curved&quot;:0,&quot;rounded&quot;:0};fillColor=#d5e8d4;strokeColor=#82b366;strokeWidth=1;" parent="wY-9QU6Hc4VhNN35h-ed-2" vertex="1">
          <mxGeometry x="55" y="4109" width="10" height="69" as="geometry" />
        </mxCell>
        <mxCell id="vON2dF-ep-lUM6U2tdR--166" value="" style="html=1;points=[[0,0,0,0,5],[0,1,0,0,-5],[1,0,0,0,5],[1,1,0,0,-5]];perimeter=orthogonalPerimeter;outlineConnect=0;targetShapes=umlLifeline;portConstraint=eastwest;newEdgeStyle={&quot;curved&quot;:0,&quot;rounded&quot;:0};fillColor=#d5e8d4;strokeColor=#82b366;strokeWidth=1;" parent="wY-9QU6Hc4VhNN35h-ed-2" vertex="1">
          <mxGeometry x="55" y="4289" width="10" height="69" as="geometry" />
        </mxCell>
        <mxCell id="Ysz-K_B-eP1D2sR8AOiZ-20" value="" style="html=1;points=[[0,0,0,0,5],[0,1,0,0,-5],[1,0,0,0,5],[1,1,0,0,-5]];perimeter=orthogonalPerimeter;outlineConnect=0;targetShapes=umlLifeline;portConstraint=eastwest;newEdgeStyle={&quot;curved&quot;:0,&quot;rounded&quot;:0};fillColor=#d5e8d4;strokeColor=#82b366;strokeWidth=2;" vertex="1" parent="wY-9QU6Hc4VhNN35h-ed-2">
          <mxGeometry x="55" y="1180" width="10" height="69" as="geometry" />
        </mxCell>
        <mxCell id="wY-9QU6Hc4VhNN35h-ed-3" value="&lt;b&gt;super-starwars-papi&lt;/b&gt;" style="shape=umlLifeline;perimeter=lifelinePerimeter;whiteSpace=wrap;html=1;container=1;dropTarget=0;collapsible=0;recursiveResize=0;outlineConnect=0;portConstraint=eastwest;newEdgeStyle={&quot;curved&quot;:0,&quot;rounded&quot;:0};fillColor=#b1ddf0;strokeColor=#10739e;strokeWidth=2;" parent="1" vertex="1">
          <mxGeometry x="400" y="-80" width="120" height="4440" as="geometry" />
        </mxCell>
        <mxCell id="vON2dF-ep-lUM6U2tdR--17" value="" style="html=1;points=[[0,0,0,0,5],[0,1,0,0,-5],[1,0,0,0,5],[1,1,0,0,-5]];perimeter=orthogonalPerimeter;outlineConnect=0;targetShapes=umlLifeline;portConstraint=eastwest;newEdgeStyle={&quot;curved&quot;:0,&quot;rounded&quot;:0};fillColor=#b1ddf0;strokeColor=#10739e;strokeWidth=2;" parent="wY-9QU6Hc4VhNN35h-ed-3" vertex="1">
          <mxGeometry x="55" y="60" width="10" height="111" as="geometry" />
        </mxCell>
        <mxCell id="vON2dF-ep-lUM6U2tdR--18" value="&lt;div style=&quot;&quot;&gt;&lt;b&gt;Save gender queryParameter in variable&lt;br&gt;&lt;br&gt;&lt;/b&gt;&lt;/div&gt;&lt;div style=&quot;&quot;&gt;&lt;div&gt;&lt;b&gt;Save gender queryParameter in variable&lt;/b&gt;&lt;/div&gt;&lt;div&gt;&lt;b&gt;&lt;br&gt;&lt;/b&gt;&lt;/div&gt;&lt;div&gt;&lt;b&gt;Prepare Payload Common Http Request&lt;/b&gt;&lt;br&gt;&lt;/div&gt;&lt;/div&gt;&lt;div style=&quot;&quot;&gt;&lt;b&gt;&lt;br&gt;&lt;/b&gt;&lt;/div&gt;&lt;div style=&quot;&quot;&gt;&lt;b&gt;Create Empty Accumulator Variable&lt;/b&gt;&lt;br&gt;&lt;/div&gt;&lt;div style=&quot;&quot;&gt;&lt;br&gt;&lt;/div&gt;" style="html=1;align=left;spacingLeft=2;endArrow=block;rounded=0;edgeStyle=orthogonalEdgeStyle;curved=0;rounded=0;fillColor=#b1ddf0;strokeColor=#10739e;strokeWidth=2;labelBorderColor=default;textShadow=0;" parent="wY-9QU6Hc4VhNN35h-ed-3" edge="1">
          <mxGeometry x="-0.0011" relative="1" as="geometry">
            <mxPoint x="65" y="110" as="sourcePoint" />
            <Array as="points">
              <mxPoint x="110" y="110" />
              <mxPoint x="110" y="140" />
            </Array>
            <mxPoint x="65" y="140" as="targetPoint" />
            <mxPoint as="offset" />
          </mxGeometry>
        </mxCell>
        <mxCell id="vON2dF-ep-lUM6U2tdR--25" value="" style="html=1;points=[[0,0,0,0,5],[0,1,0,0,-5],[1,0,0,0,5],[1,1,0,0,-5]];perimeter=orthogonalPerimeter;outlineConnect=0;targetShapes=umlLifeline;portConstraint=eastwest;newEdgeStyle={&quot;curved&quot;:0,&quot;rounded&quot;:0};fillColor=#b1ddf0;strokeColor=#10739e;strokeWidth=2;" parent="wY-9QU6Hc4VhNN35h-ed-3" vertex="1">
          <mxGeometry x="55" y="320" width="10" height="62" as="geometry" />
        </mxCell>
        <mxCell id="vON2dF-ep-lUM6U2tdR--26" value="&lt;div style=&quot;&quot;&gt;&lt;b&gt;Use a function to filter results based on gender&lt;font color=&quot;#ea6b66&quot;&gt;&lt;br&gt;&lt;/font&gt;&lt;/b&gt;&lt;b&gt;&lt;font color=&quot;#ea6b66&quot;&gt;&lt;br&gt;&lt;/font&gt;Save Results in Accumulator Variable&lt;/b&gt;&lt;/div&gt;" style="html=1;align=left;spacingLeft=2;endArrow=block;rounded=0;edgeStyle=orthogonalEdgeStyle;curved=0;rounded=0;fillColor=#b1ddf0;strokeColor=#10739e;strokeWidth=2;labelBorderColor=default;" parent="wY-9QU6Hc4VhNN35h-ed-3" target="vON2dF-ep-lUM6U2tdR--25" edge="1">
          <mxGeometry x="0.0059" relative="1" as="geometry">
            <mxPoint x="65" y="331" as="sourcePoint" />
            <Array as="points">
              <mxPoint x="100" y="331" />
              <mxPoint x="100" y="361" />
            </Array>
            <mxPoint as="offset" />
          </mxGeometry>
        </mxCell>
        <mxCell id="vON2dF-ep-lUM6U2tdR--31" value="&lt;div style=&quot;&quot;&gt;&lt;b&gt;Save Pages to Process in loop&lt;/b&gt;&lt;/div&gt;" style="html=1;align=left;spacingLeft=2;endArrow=block;rounded=0;edgeStyle=orthogonalEdgeStyle;curved=0;rounded=0;fillColor=#b1ddf0;strokeColor=#10739e;strokeWidth=2;labelBorderColor=default;" parent="wY-9QU6Hc4VhNN35h-ed-3" target="vON2dF-ep-lUM6U2tdR--30" edge="1">
          <mxGeometry x="0.0059" relative="1" as="geometry">
            <mxPoint x="65" y="522" as="sourcePoint" />
            <Array as="points">
              <mxPoint x="100" y="522" />
              <mxPoint x="100" y="552" />
            </Array>
            <mxPoint as="offset" />
          </mxGeometry>
        </mxCell>
        <mxCell id="vON2dF-ep-lUM6U2tdR--146" value="" style="html=1;points=[[0,0,0,0,5],[0,1,0,0,-5],[1,0,0,0,5],[1,1,0,0,-5]];perimeter=orthogonalPerimeter;outlineConnect=0;targetShapes=umlLifeline;portConstraint=eastwest;newEdgeStyle={&quot;curved&quot;:0,&quot;rounded&quot;:0};fillColor=#b1ddf0;strokeColor=#10739e;strokeWidth=2;" parent="wY-9QU6Hc4VhNN35h-ed-3" vertex="1">
          <mxGeometry x="55" y="220" width="10" height="50" as="geometry" />
        </mxCell>
        <mxCell id="vON2dF-ep-lUM6U2tdR--30" value="" style="html=1;points=[[0,0,0,0,5],[0,1,0,0,-5],[1,0,0,0,5],[1,1,0,0,-5]];perimeter=orthogonalPerimeter;outlineConnect=0;targetShapes=umlLifeline;portConstraint=eastwest;newEdgeStyle={&quot;curved&quot;:0,&quot;rounded&quot;:0};fillColor=#b1ddf0;strokeColor=#10739e;strokeWidth=2;" parent="wY-9QU6Hc4VhNN35h-ed-3" vertex="1">
          <mxGeometry x="55" y="510" width="10" height="63" as="geometry" />
        </mxCell>
        <mxCell id="vON2dF-ep-lUM6U2tdR--150" value="" style="html=1;points=[[0,0,0,0,5],[0,1,0,0,-5],[1,0,0,0,5],[1,1,0,0,-5]];perimeter=orthogonalPerimeter;outlineConnect=0;targetShapes=umlLifeline;portConstraint=eastwest;newEdgeStyle={&quot;curved&quot;:0,&quot;rounded&quot;:0};fillColor=#b1ddf0;strokeColor=#10739e;strokeWidth=2;" parent="wY-9QU6Hc4VhNN35h-ed-3" vertex="1">
          <mxGeometry x="55" y="1670" width="10" height="60" as="geometry" />
        </mxCell>
        <mxCell id="vON2dF-ep-lUM6U2tdR--151" value="" style="html=1;points=[[0,0,0,0,5],[0,1,0,0,-5],[1,0,0,0,5],[1,1,0,0,-5]];perimeter=orthogonalPerimeter;outlineConnect=0;targetShapes=umlLifeline;portConstraint=eastwest;newEdgeStyle={&quot;curved&quot;:0,&quot;rounded&quot;:0};fillColor=#b1ddf0;strokeColor=#10739e;strokeWidth=2;" parent="wY-9QU6Hc4VhNN35h-ed-3" vertex="1">
          <mxGeometry x="55" y="2150" width="10" height="50" as="geometry" />
        </mxCell>
        <mxCell id="vON2dF-ep-lUM6U2tdR--110" value="" style="html=1;points=[[0,0,0,0,5],[0,1,0,0,-5],[1,0,0,0,5],[1,1,0,0,-5]];perimeter=orthogonalPerimeter;outlineConnect=0;targetShapes=umlLifeline;portConstraint=eastwest;newEdgeStyle={&quot;curved&quot;:0,&quot;rounded&quot;:0};fillColor=#b1ddf0;strokeColor=#10739e;strokeWidth=2;" parent="wY-9QU6Hc4VhNN35h-ed-3" vertex="1">
          <mxGeometry x="55" y="2580" width="10" height="62" as="geometry" />
        </mxCell>
        <mxCell id="vON2dF-ep-lUM6U2tdR--156" value="" style="html=1;points=[[0,0,0,0,5],[0,1,0,0,-5],[1,0,0,0,5],[1,1,0,0,-5]];perimeter=orthogonalPerimeter;outlineConnect=0;targetShapes=umlLifeline;portConstraint=eastwest;newEdgeStyle={&quot;curved&quot;:0,&quot;rounded&quot;:0};fillColor=#b1ddf0;strokeColor=#10739e;strokeWidth=2;" parent="wY-9QU6Hc4VhNN35h-ed-3" vertex="1">
          <mxGeometry x="55" y="4108" width="10" height="69" as="geometry" />
        </mxCell>
        <mxCell id="vON2dF-ep-lUM6U2tdR--157" value="&lt;div style=&quot;&quot;&gt;&lt;b&gt;Map and Clean Results in CSV Format&lt;/b&gt;&lt;/div&gt;" style="html=1;align=left;spacingLeft=2;endArrow=block;rounded=0;edgeStyle=orthogonalEdgeStyle;curved=0;rounded=0;fillColor=#b1ddf0;strokeColor=#10739e;strokeWidth=2;labelBorderColor=default;" parent="wY-9QU6Hc4VhNN35h-ed-3" edge="1">
          <mxGeometry x="0.0044" relative="1" as="geometry">
            <mxPoint x="65" y="4126" as="sourcePoint" />
            <Array as="points">
              <mxPoint x="100" y="4126" />
              <mxPoint x="100" y="4156" />
            </Array>
            <mxPoint as="offset" />
            <mxPoint x="65" y="4156" as="targetPoint" />
          </mxGeometry>
        </mxCell>
        <mxCell id="vON2dF-ep-lUM6U2tdR--164" value="" style="html=1;points=[[0,0,0,0,5],[0,1,0,0,-5],[1,0,0,0,5],[1,1,0,0,-5]];perimeter=orthogonalPerimeter;outlineConnect=0;targetShapes=umlLifeline;portConstraint=eastwest;newEdgeStyle={&quot;curved&quot;:0,&quot;rounded&quot;:0};fillColor=#b1ddf0;strokeColor=#10739e;strokeWidth=2;" parent="wY-9QU6Hc4VhNN35h-ed-3" vertex="1">
          <mxGeometry x="55" y="4289" width="10" height="69" as="geometry" />
        </mxCell>
        <mxCell id="vON2dF-ep-lUM6U2tdR--165" value="&lt;div style=&quot;&quot;&gt;&lt;b&gt;Map and Send Error Response&lt;/b&gt;&lt;/div&gt;" style="html=1;align=left;spacingLeft=2;endArrow=block;rounded=0;edgeStyle=orthogonalEdgeStyle;curved=0;rounded=0;fillColor=#b1ddf0;strokeColor=#10739e;strokeWidth=2;labelBorderColor=default;" parent="wY-9QU6Hc4VhNN35h-ed-3" edge="1">
          <mxGeometry x="0.0044" relative="1" as="geometry">
            <mxPoint x="65" y="4307" as="sourcePoint" />
            <Array as="points">
              <mxPoint x="100" y="4307" />
              <mxPoint x="100" y="4337" />
            </Array>
            <mxPoint as="offset" />
            <mxPoint x="65" y="4337" as="targetPoint" />
          </mxGeometry>
        </mxCell>
        <mxCell id="Ysz-K_B-eP1D2sR8AOiZ-15" value="" style="html=1;points=[[0,0,0,0,5],[0,1,0,0,-5],[1,0,0,0,5],[1,1,0,0,-5]];perimeter=orthogonalPerimeter;outlineConnect=0;targetShapes=umlLifeline;portConstraint=eastwest;newEdgeStyle={&quot;curved&quot;:0,&quot;rounded&quot;:0};fillColor=#b1ddf0;strokeColor=#10739e;strokeWidth=2;" vertex="1" parent="wY-9QU6Hc4VhNN35h-ed-3">
          <mxGeometry x="55" y="1197" width="10" height="50" as="geometry" />
        </mxCell>
        <mxCell id="Ysz-K_B-eP1D2sR8AOiZ-16" value="&lt;div style=&quot;&quot;&gt;&lt;b style=&quot;&quot;&gt;Map Results in CSV Format&lt;/b&gt;&lt;/div&gt;" style="html=1;align=left;spacingLeft=2;endArrow=block;rounded=0;edgeStyle=orthogonalEdgeStyle;curved=0;rounded=0;fillColor=#b1ddf0;strokeColor=#10739e;strokeWidth=2;labelBorderColor=default;" edge="1" parent="wY-9QU6Hc4VhNN35h-ed-3" source="Ysz-K_B-eP1D2sR8AOiZ-15" target="Ysz-K_B-eP1D2sR8AOiZ-15">
          <mxGeometry x="0.0059" relative="1" as="geometry">
            <mxPoint x="70" y="1207" as="sourcePoint" />
            <Array as="points">
              <mxPoint x="105" y="1207" />
              <mxPoint x="105" y="1237" />
            </Array>
            <mxPoint as="offset" />
            <mxPoint x="70" y="1237" as="targetPoint" />
          </mxGeometry>
        </mxCell>
        <mxCell id="wY-9QU6Hc4VhNN35h-ed-4" value="&lt;b&gt;SWAPI&lt;/b&gt;" style="shape=umlLifeline;perimeter=lifelinePerimeter;whiteSpace=wrap;html=1;container=1;dropTarget=0;collapsible=0;recursiveResize=0;outlineConnect=0;portConstraint=eastwest;newEdgeStyle={&quot;curved&quot;:0,&quot;rounded&quot;:0};fillColor=#e1d5e7;strokeColor=#6600CC;strokeWidth=2;" parent="1" vertex="1">
          <mxGeometry x="880" y="-80" width="120" height="4000" as="geometry" />
        </mxCell>
        <mxCell id="vON2dF-ep-lUM6U2tdR--15" value="" style="html=1;points=[[0,0,0,0,5],[0,1,0,0,-5],[1,0,0,0,5],[1,1,0,0,-5]];perimeter=orthogonalPerimeter;outlineConnect=0;targetShapes=umlLifeline;portConstraint=eastwest;newEdgeStyle={&quot;curved&quot;:0,&quot;rounded&quot;:0};fillColor=#e1d5e7;strokeColor=#9673a6;strokeWidth=2;" parent="wY-9QU6Hc4VhNN35h-ed-4" vertex="1">
          <mxGeometry x="55" y="220" width="10" height="50" as="geometry" />
        </mxCell>
        <mxCell id="wY-9QU6Hc4VhNN35h-ed-5" value="&lt;div&gt;&lt;b&gt;&lt;font style=&quot;font-size: 16px;&quot;&gt;Super StarWars API GET: /characters&lt;/font&gt;&lt;/b&gt;&lt;/div&gt;" style="text;strokeColor=none;align=center;fillColor=none;html=1;verticalAlign=middle;whiteSpace=wrap;rounded=0;" parent="1" vertex="1">
          <mxGeometry x="54" y="-240" width="720" height="30" as="geometry" />
        </mxCell>
        <mxCell id="wY-9QU6Hc4VhNN35h-ed-10" value="&lt;b&gt;StarWars App&lt;/b&gt;" style="shape=umlLifeline;perimeter=lifelinePerimeter;whiteSpace=wrap;html=1;container=1;dropTarget=0;collapsible=0;recursiveResize=0;outlineConnect=0;portConstraint=eastwest;newEdgeStyle={&quot;curved&quot;:0,&quot;rounded&quot;:0};fillColor=#fff2cc;strokeColor=#666600;strokeWidth=2;" parent="1" vertex="1">
          <mxGeometry y="-80" width="120" height="4440" as="geometry" />
        </mxCell>
        <mxCell id="vON2dF-ep-lUM6U2tdR--11" value="" style="html=1;points=[[0,0,0,0,5],[0,1,0,0,-5],[1,0,0,0,5],[1,1,0,0,-5]];perimeter=orthogonalPerimeter;outlineConnect=0;targetShapes=umlLifeline;portConstraint=eastwest;newEdgeStyle={&quot;curved&quot;:0,&quot;rounded&quot;:0};fillColor=#fff2cc;strokeColor=#d6b656;rounded=0;glass=0;strokeWidth=2;" parent="wY-9QU6Hc4VhNN35h-ed-10" vertex="1">
          <mxGeometry x="55" y="60" width="10" height="40" as="geometry" />
        </mxCell>
        <mxCell id="vON2dF-ep-lUM6U2tdR--177" value="" style="html=1;points=[[0,0,0,0,5],[0,1,0,0,-5],[1,0,0,0,5],[1,1,0,0,-5]];perimeter=orthogonalPerimeter;outlineConnect=0;targetShapes=umlLifeline;portConstraint=eastwest;newEdgeStyle={&quot;curved&quot;:0,&quot;rounded&quot;:0};fillColor=#fff2cc;strokeColor=#d6b656;strokeWidth=2;" parent="wY-9QU6Hc4VhNN35h-ed-10" vertex="1">
          <mxGeometry x="55" y="4289" width="10" height="69" as="geometry" />
        </mxCell>
        <mxCell id="Ysz-K_B-eP1D2sR8AOiZ-21" value="" style="html=1;points=[[0,0,0,0,5],[0,1,0,0,-5],[1,0,0,0,5],[1,1,0,0,-5]];perimeter=orthogonalPerimeter;outlineConnect=0;targetShapes=umlLifeline;portConstraint=eastwest;newEdgeStyle={&quot;curved&quot;:0,&quot;rounded&quot;:0};fillColor=#fff2cc;strokeColor=#d6b656;strokeWidth=2;" vertex="1" parent="wY-9QU6Hc4VhNN35h-ed-10">
          <mxGeometry x="55" y="1180" width="10" height="69" as="geometry" />
        </mxCell>
        <mxCell id="wY-9QU6Hc4VhNN35h-ed-27" value="Diagram Definition" style="swimlane;whiteSpace=wrap;html=1;fillColor=#f5f5f5;fontColor=#333333;strokeColor=#666666;strokeWidth=2;" parent="1" vertex="1">
          <mxGeometry x="-280" y="-80" width="200" height="230" as="geometry" />
        </mxCell>
        <mxCell id="wY-9QU6Hc4VhNN35h-ed-26" value="" style="rounded=0;whiteSpace=wrap;html=1;fillColor=#fff2cc;strokeColor=#d6b656;strokeWidth=2;" parent="wY-9QU6Hc4VhNN35h-ed-27" vertex="1">
          <mxGeometry x="20" y="40" width="20" height="20" as="geometry" />
        </mxCell>
        <mxCell id="wY-9QU6Hc4VhNN35h-ed-16" value="" style="rounded=0;whiteSpace=wrap;html=1;fillColor=#d5e8d4;strokeColor=#82b366;strokeWidth=2;" parent="wY-9QU6Hc4VhNN35h-ed-27" vertex="1">
          <mxGeometry x="20" y="80" width="20" height="20" as="geometry" />
        </mxCell>
        <mxCell id="wY-9QU6Hc4VhNN35h-ed-17" value="" style="rounded=0;whiteSpace=wrap;html=1;fillColor=#dae8fc;strokeColor=#6c8ebf;strokeWidth=2;" parent="wY-9QU6Hc4VhNN35h-ed-27" vertex="1">
          <mxGeometry x="20" y="120" width="20" height="20" as="geometry" />
        </mxCell>
        <mxCell id="wY-9QU6Hc4VhNN35h-ed-18" value="" style="rounded=0;whiteSpace=wrap;html=1;fillColor=#f8cecc;strokeColor=#b85450;strokeWidth=2;" parent="wY-9QU6Hc4VhNN35h-ed-27" vertex="1">
          <mxGeometry x="20" y="160" width="20" height="20" as="geometry" />
        </mxCell>
        <mxCell id="wY-9QU6Hc4VhNN35h-ed-28" value="" style="rounded=0;whiteSpace=wrap;html=1;fillColor=#e1d5e7;strokeColor=#9673a6;strokeWidth=2;" parent="wY-9QU6Hc4VhNN35h-ed-27" vertex="1">
          <mxGeometry x="20" y="200" width="20" height="20" as="geometry" />
        </mxCell>
        <mxCell id="wY-9QU6Hc4VhNN35h-ed-29" value="&lt;b&gt;API Consumer&lt;/b&gt;" style="text;html=1;align=center;verticalAlign=middle;whiteSpace=wrap;rounded=0;" parent="wY-9QU6Hc4VhNN35h-ed-27" vertex="1">
          <mxGeometry x="70" y="35" width="90" height="30" as="geometry" />
        </mxCell>
        <mxCell id="wY-9QU6Hc4VhNN35h-ed-30" value="&lt;b&gt;Experience API&lt;/b&gt;" style="text;html=1;align=center;verticalAlign=middle;whiteSpace=wrap;rounded=0;" parent="wY-9QU6Hc4VhNN35h-ed-27" vertex="1">
          <mxGeometry x="70" y="75" width="90" height="30" as="geometry" />
        </mxCell>
        <mxCell id="wY-9QU6Hc4VhNN35h-ed-31" value="&lt;b&gt;Process API&lt;/b&gt;" style="text;html=1;align=center;verticalAlign=middle;whiteSpace=wrap;rounded=0;" parent="wY-9QU6Hc4VhNN35h-ed-27" vertex="1">
          <mxGeometry x="70" y="115" width="90" height="30" as="geometry" />
        </mxCell>
        <mxCell id="wY-9QU6Hc4VhNN35h-ed-32" value="&lt;b&gt;System API&lt;/b&gt;" style="text;html=1;align=center;verticalAlign=middle;whiteSpace=wrap;rounded=0;" parent="wY-9QU6Hc4VhNN35h-ed-27" vertex="1">
          <mxGeometry x="70" y="155" width="90" height="30" as="geometry" />
        </mxCell>
        <mxCell id="wY-9QU6Hc4VhNN35h-ed-33" value="&lt;b&gt;External Service&lt;/b&gt;" style="text;html=1;align=center;verticalAlign=middle;whiteSpace=wrap;rounded=0;" parent="wY-9QU6Hc4VhNN35h-ed-27" vertex="1">
          <mxGeometry x="70" y="195" width="100" height="30" as="geometry" />
        </mxCell>
        <mxCell id="vON2dF-ep-lUM6U2tdR--2" value="" style="endArrow=classic;html=1;rounded=0;dashed=1;" parent="1" edge="1">
          <mxGeometry width="50" height="50" relative="1" as="geometry">
            <mxPoint x="65" as="sourcePoint" />
            <mxPoint x="255" as="targetPoint" />
          </mxGeometry>
        </mxCell>
        <mxCell id="vON2dF-ep-lUM6U2tdR--3" value="&lt;b&gt;GET: /characters&lt;/b&gt;" style="text;strokeColor=none;align=center;fillColor=none;html=1;verticalAlign=middle;whiteSpace=wrap;rounded=0;" parent="1" vertex="1">
          <mxGeometry x="70" y="-20" width="180" height="20" as="geometry" />
        </mxCell>
        <mxCell id="vON2dF-ep-lUM6U2tdR--4" value="" style="endArrow=classic;html=1;rounded=0;dashed=1;" parent="1" edge="1">
          <mxGeometry width="50" height="50" relative="1" as="geometry">
            <mxPoint x="266" y="20" as="sourcePoint" />
            <mxPoint x="455" y="20" as="targetPoint" />
          </mxGeometry>
        </mxCell>
        <mxCell id="vON2dF-ep-lUM6U2tdR--5" value="&lt;b&gt;GET: /characters&lt;/b&gt;" style="text;strokeColor=none;align=center;fillColor=none;html=1;verticalAlign=middle;whiteSpace=wrap;rounded=0;" parent="1" vertex="1">
          <mxGeometry x="270" width="180" height="20" as="geometry" />
        </mxCell>
        <mxCell id="vON2dF-ep-lUM6U2tdR--6" value="" style="endArrow=classic;html=1;rounded=0;dashed=1;" parent="1" edge="1">
          <mxGeometry width="50" height="50" relative="1" as="geometry">
            <mxPoint x="465" y="149" as="sourcePoint" />
            <mxPoint x="935" y="149" as="targetPoint" />
          </mxGeometry>
        </mxCell>
        <mxCell id="vON2dF-ep-lUM6U2tdR--7" value="&lt;b&gt;GET: /api/people&lt;/b&gt;" style="text;strokeColor=none;align=center;fillColor=none;html=1;verticalAlign=middle;whiteSpace=wrap;rounded=0;" parent="1" vertex="1">
          <mxGeometry x="620" y="129" width="180" height="20" as="geometry" />
        </mxCell>
        <mxCell id="vON2dF-ep-lUM6U2tdR--8" value="" style="endArrow=classic;html=1;rounded=0;dashed=1;" parent="1" edge="1">
          <mxGeometry width="50" height="50" relative="1" as="geometry">
            <mxPoint x="935" y="178" as="sourcePoint" />
            <mxPoint x="465" y="178" as="targetPoint" />
          </mxGeometry>
        </mxCell>
        <mxCell id="vON2dF-ep-lUM6U2tdR--9" value="&lt;b&gt;GET: /api/people Response&lt;/b&gt;" style="text;strokeColor=none;align=center;fillColor=none;html=1;verticalAlign=middle;whiteSpace=wrap;rounded=0;" parent="1" vertex="1">
          <mxGeometry x="610" y="158" width="200" height="20" as="geometry" />
        </mxCell>
        <mxCell id="vON2dF-ep-lUM6U2tdR--27" value="&lt;b&gt;Response has next page?&lt;/b&gt;" style="shape=umlFrame;whiteSpace=wrap;html=1;pointerEvents=0;recursiveResize=0;container=1;collapsible=0;width=170;strokeWidth=2;fillColor=#ffff88;strokeColor=#36393d;labelBorderColor=none;labelBackgroundColor=#FFFF66;" parent="1" vertex="1">
          <mxGeometry x="400" y="359" width="600" height="641" as="geometry" />
        </mxCell>
        <mxCell id="vON2dF-ep-lUM6U2tdR--28" value="&lt;b style=&quot;background-color: rgb(255, 255, 102);&quot;&gt;Has next page&lt;/b&gt;" style="text;html=1;fillColor=none;labelBorderColor=default;labelBackgroundColor=#FFFF66;strokeWidth=0;strokeColor=none;" parent="vON2dF-ep-lUM6U2tdR--27" vertex="1">
          <mxGeometry width="100" height="20" relative="1" as="geometry">
            <mxPoint x="20" y="40" as="offset" />
          </mxGeometry>
        </mxCell>
        <mxCell id="vON2dF-ep-lUM6U2tdR--29" value="&lt;b style=&quot;background-color: rgb(255, 255, 102);&quot;&gt;Does not have next page&lt;/b&gt;" style="line;strokeWidth=2;dashed=1;labelPosition=center;verticalLabelPosition=bottom;align=left;verticalAlign=top;spacingLeft=20;spacingTop=15;html=1;whiteSpace=wrap;" parent="vON2dF-ep-lUM6U2tdR--27" vertex="1">
          <mxGeometry y="520" width="600" height="10" as="geometry" />
        </mxCell>
        <mxCell id="vON2dF-ep-lUM6U2tdR--32" value="&lt;b&gt;loop - Parallel&lt;/b&gt;" style="shape=umlFrame;whiteSpace=wrap;html=1;pointerEvents=0;strokeWidth=2;fillColor=#ffff88;strokeColor=#36393d;" parent="vON2dF-ep-lUM6U2tdR--27" vertex="1">
          <mxGeometry x="20" y="151" width="560" height="179" as="geometry" />
        </mxCell>
        <mxCell id="vON2dF-ep-lUM6U2tdR--35" value="" style="endArrow=classic;html=1;rounded=0;dashed=1;" parent="vON2dF-ep-lUM6U2tdR--27" edge="1">
          <mxGeometry width="50" height="50" relative="1" as="geometry">
            <mxPoint x="65" y="281" as="sourcePoint" />
            <mxPoint x="535" y="281" as="targetPoint" />
          </mxGeometry>
        </mxCell>
        <mxCell id="vON2dF-ep-lUM6U2tdR--36" value="&lt;b&gt;GET: /api/people?page={page}&lt;/b&gt;" style="text;strokeColor=none;align=center;fillColor=none;html=1;verticalAlign=middle;whiteSpace=wrap;rounded=0;" parent="vON2dF-ep-lUM6U2tdR--27" vertex="1">
          <mxGeometry x="220" y="261" width="180" height="20" as="geometry" />
        </mxCell>
        <mxCell id="vON2dF-ep-lUM6U2tdR--37" value="" style="endArrow=classic;html=1;rounded=0;dashed=1;" parent="vON2dF-ep-lUM6U2tdR--27" edge="1">
          <mxGeometry width="50" height="50" relative="1" as="geometry">
            <mxPoint x="535" y="310" as="sourcePoint" />
            <mxPoint x="65" y="310" as="targetPoint" />
          </mxGeometry>
        </mxCell>
        <mxCell id="vON2dF-ep-lUM6U2tdR--38" value="&lt;b&gt;GET: /api/people?page={page} Response&lt;/b&gt;" style="text;strokeColor=none;align=center;fillColor=none;html=1;verticalAlign=middle;whiteSpace=wrap;rounded=0;" parent="vON2dF-ep-lUM6U2tdR--27" vertex="1">
          <mxGeometry x="185" y="290" width="250" height="20" as="geometry" />
        </mxCell>
        <mxCell id="vON2dF-ep-lUM6U2tdR--43" value="&lt;b&gt;Log To indicate there is no more pages&lt;/b&gt;" style="shape=note2;boundedLbl=1;whiteSpace=wrap;html=1;size=25;verticalAlign=top;align=center;" parent="vON2dF-ep-lUM6U2tdR--27" vertex="1">
          <mxGeometry x="210" y="571" width="180" height="60" as="geometry" />
        </mxCell>
        <mxCell id="vON2dF-ep-lUM6U2tdR--44" value="" style="html=1;points=[[0,0,0,0,5],[0,1,0,0,-5],[1,0,0,0,5],[1,1,0,0,-5]];perimeter=orthogonalPerimeter;outlineConnect=0;targetShapes=umlLifeline;portConstraint=eastwest;newEdgeStyle={&quot;curved&quot;:0,&quot;rounded&quot;:0};fillColor=#e1d5e7;strokeColor=#9673a6;strokeWidth=2;" parent="vON2dF-ep-lUM6U2tdR--27" vertex="1">
          <mxGeometry x="535" y="270" width="10" height="51" as="geometry" />
        </mxCell>
        <mxCell id="vON2dF-ep-lUM6U2tdR--33" value="" style="html=1;points=[[0,0,0,0,5],[0,1,0,0,-5],[1,0,0,0,5],[1,1,0,0,-5]];perimeter=orthogonalPerimeter;outlineConnect=0;targetShapes=umlLifeline;portConstraint=eastwest;newEdgeStyle={&quot;curved&quot;:0,&quot;rounded&quot;:0};fillColor=#b1ddf0;strokeColor=#10739e;strokeWidth=2;" parent="vON2dF-ep-lUM6U2tdR--27" vertex="1">
          <mxGeometry x="55" y="190" width="10" height="51" as="geometry" />
        </mxCell>
        <mxCell id="vON2dF-ep-lUM6U2tdR--149" value="" style="html=1;points=[[0,0,0,0,5],[0,1,0,0,-5],[1,0,0,0,5],[1,1,0,0,-5]];perimeter=orthogonalPerimeter;outlineConnect=0;targetShapes=umlLifeline;portConstraint=eastwest;newEdgeStyle={&quot;curved&quot;:0,&quot;rounded&quot;:0};fillColor=#b1ddf0;strokeColor=#10739e;strokeWidth=2;" parent="vON2dF-ep-lUM6U2tdR--27" vertex="1">
          <mxGeometry x="55" y="270" width="10" height="51" as="geometry" />
        </mxCell>
        <mxCell id="vON2dF-ep-lUM6U2tdR--41" value="" style="html=1;points=[[0,0,0,0,5],[0,1,0,0,-5],[1,0,0,0,5],[1,1,0,0,-5]];perimeter=orthogonalPerimeter;outlineConnect=0;targetShapes=umlLifeline;portConstraint=eastwest;newEdgeStyle={&quot;curved&quot;:0,&quot;rounded&quot;:0};fillColor=#b1ddf0;strokeColor=#10739e;strokeWidth=2;" parent="vON2dF-ep-lUM6U2tdR--27" vertex="1">
          <mxGeometry x="55" y="400" width="10" height="61" as="geometry" />
        </mxCell>
        <mxCell id="vON2dF-ep-lUM6U2tdR--34" value="&lt;div style=&quot;&quot;&gt;&lt;b&gt;Prepare Payload Common Httpt Request&lt;/b&gt;&lt;/div&gt;" style="html=1;align=left;spacingLeft=2;endArrow=block;rounded=0;edgeStyle=orthogonalEdgeStyle;curved=0;rounded=0;fillColor=#b1ddf0;strokeColor=#10739e;strokeWidth=2;labelBorderColor=default;" parent="1" edge="1">
          <mxGeometry x="0.0059" relative="1" as="geometry">
            <mxPoint x="465" y="559" as="sourcePoint" />
            <Array as="points">
              <mxPoint x="500" y="559" />
              <mxPoint x="500" y="589" />
            </Array>
            <mxPoint as="offset" />
            <mxPoint x="465" y="589.0666666666666" as="targetPoint" />
          </mxGeometry>
        </mxCell>
        <mxCell id="vON2dF-ep-lUM6U2tdR--42" value="&lt;div style=&quot;&quot;&gt;&lt;b&gt;Re-use function to filter results based on gender&lt;/b&gt;&lt;br&gt;&lt;/div&gt;&lt;div style=&quot;&quot;&gt;&lt;b&gt;&lt;div style=&quot;&quot;&gt;&lt;font color=&quot;#ea6b66&quot;&gt;&lt;br&gt;&lt;/font&gt;Save and accumulate all results&lt;/div&gt;&lt;/b&gt;&lt;/div&gt;" style="html=1;align=left;spacingLeft=2;endArrow=block;rounded=0;edgeStyle=orthogonalEdgeStyle;curved=0;rounded=0;fillColor=#b1ddf0;strokeColor=#10739e;strokeWidth=2;labelBorderColor=default;" parent="1" target="vON2dF-ep-lUM6U2tdR--41" edge="1">
          <mxGeometry x="0.0059" relative="1" as="geometry">
            <mxPoint x="465" y="769" as="sourcePoint" />
            <Array as="points">
              <mxPoint x="500" y="769" />
              <mxPoint x="500" y="799" />
            </Array>
            <mxPoint as="offset" />
          </mxGeometry>
        </mxCell>
        <mxCell id="vON2dF-ep-lUM6U2tdR--56" value="loop - accumulated results in parallel" style="shape=umlFrame;whiteSpace=wrap;html=1;pointerEvents=0;recursiveResize=0;container=1;collapsible=0;width=170;fontStyle=1;labelBackgroundColor=none;fillColor=#ffff88;strokeColor=#36393d;strokeWidth=2;" parent="1" vertex="1">
          <mxGeometry x="400" y="1380" width="600" height="2500" as="geometry" />
        </mxCell>
        <mxCell id="vON2dF-ep-lUM6U2tdR--59" value="Does Character have a planet?" style="shape=umlFrame;whiteSpace=wrap;html=1;pointerEvents=0;recursiveResize=0;container=1;collapsible=0;width=170;fillColor=#ffff88;strokeColor=#36393d;strokeWidth=2;fontStyle=1" parent="vON2dF-ep-lUM6U2tdR--56" vertex="1">
          <mxGeometry x="30" y="50" width="540" height="430" as="geometry" />
        </mxCell>
        <mxCell id="vON2dF-ep-lUM6U2tdR--60" value="&lt;b style=&quot;background-color: rgb(255, 255, 102);&quot;&gt;Has Planet&lt;/b&gt;" style="text;html=1;" parent="vON2dF-ep-lUM6U2tdR--59" vertex="1">
          <mxGeometry width="100" height="20" relative="1" as="geometry">
            <mxPoint x="20" y="40" as="offset" />
          </mxGeometry>
        </mxCell>
        <mxCell id="vON2dF-ep-lUM6U2tdR--61" value="&lt;b style=&quot;background-color: rgb(255, 255, 102);&quot;&gt;Does not have Planet&lt;/b&gt;" style="line;strokeWidth=2;dashed=1;labelPosition=center;verticalLabelPosition=bottom;align=left;verticalAlign=top;spacingLeft=20;spacingTop=15;html=1;whiteSpace=wrap;" parent="vON2dF-ep-lUM6U2tdR--59" vertex="1">
          <mxGeometry y="305" width="540" height="10" as="geometry" />
        </mxCell>
        <mxCell id="vON2dF-ep-lUM6U2tdR--62" value="" style="html=1;points=[[0,0,0,0,5],[0,1,0,0,-5],[1,0,0,0,5],[1,1,0,0,-5]];perimeter=orthogonalPerimeter;outlineConnect=0;targetShapes=umlLifeline;portConstraint=eastwest;newEdgeStyle={&quot;curved&quot;:0,&quot;rounded&quot;:0};fillColor=#b1ddf0;strokeColor=#10739e;strokeWidth=2;" parent="vON2dF-ep-lUM6U2tdR--59" vertex="1">
          <mxGeometry x="25" y="80" width="10" height="65" as="geometry" />
        </mxCell>
        <mxCell id="vON2dF-ep-lUM6U2tdR--63" value="&lt;div style=&quot;&quot;&gt;&lt;b&gt;Prepare Payload Common Http Request to get planet&lt;/b&gt;&lt;/div&gt;" style="html=1;align=left;spacingLeft=2;endArrow=block;rounded=0;edgeStyle=orthogonalEdgeStyle;curved=0;rounded=0;fillColor=#b1ddf0;strokeColor=#10739e;strokeWidth=2;labelBorderColor=default;" parent="vON2dF-ep-lUM6U2tdR--59" target="vON2dF-ep-lUM6U2tdR--62" edge="1">
          <mxGeometry x="0.0059" relative="1" as="geometry">
            <mxPoint x="35" y="94" as="sourcePoint" />
            <Array as="points">
              <mxPoint x="70" y="94" />
              <mxPoint x="70" y="124" />
            </Array>
            <mxPoint as="offset" />
          </mxGeometry>
        </mxCell>
        <mxCell id="vON2dF-ep-lUM6U2tdR--64" value="" style="endArrow=classic;html=1;rounded=0;dashed=1;" parent="vON2dF-ep-lUM6U2tdR--59" edge="1">
          <mxGeometry width="50" height="50" relative="1" as="geometry">
            <mxPoint x="35" y="170" as="sourcePoint" />
            <mxPoint x="505" y="170" as="targetPoint" />
          </mxGeometry>
        </mxCell>
        <mxCell id="vON2dF-ep-lUM6U2tdR--65" value="&lt;b&gt;GET: /api/planet/{planetId}&lt;/b&gt;" style="text;strokeColor=none;align=center;fillColor=none;html=1;verticalAlign=middle;whiteSpace=wrap;rounded=0;" parent="vON2dF-ep-lUM6U2tdR--59" vertex="1">
          <mxGeometry x="190" y="150" width="180" height="20" as="geometry" />
        </mxCell>
        <mxCell id="vON2dF-ep-lUM6U2tdR--67" value="" style="html=1;points=[[0,0,0,0,5],[0,1,0,0,-5],[1,0,0,0,5],[1,1,0,0,-5]];perimeter=orthogonalPerimeter;outlineConnect=0;targetShapes=umlLifeline;portConstraint=eastwest;newEdgeStyle={&quot;curved&quot;:0,&quot;rounded&quot;:0};fillColor=#e1d5e7;strokeColor=#9673a6;strokeWidth=2;" parent="vON2dF-ep-lUM6U2tdR--59" vertex="1">
          <mxGeometry x="505" y="160" width="10" height="60" as="geometry" />
        </mxCell>
        <mxCell id="vON2dF-ep-lUM6U2tdR--70" value="" style="endArrow=classic;html=1;rounded=0;dashed=1;" parent="vON2dF-ep-lUM6U2tdR--59" edge="1">
          <mxGeometry width="50" height="50" relative="1" as="geometry">
            <mxPoint x="505" y="200" as="sourcePoint" />
            <mxPoint x="35" y="200" as="targetPoint" />
          </mxGeometry>
        </mxCell>
        <mxCell id="vON2dF-ep-lUM6U2tdR--71" value="&lt;b&gt;GET: /api/planet/{planetId} Response&lt;/b&gt;" style="text;strokeColor=none;align=center;fillColor=none;html=1;verticalAlign=middle;whiteSpace=wrap;rounded=0;" parent="vON2dF-ep-lUM6U2tdR--59" vertex="1">
          <mxGeometry x="170" y="180" width="220" height="20" as="geometry" />
        </mxCell>
        <mxCell id="vON2dF-ep-lUM6U2tdR--72" value="" style="html=1;points=[[0,0,0,0,5],[0,1,0,0,-5],[1,0,0,0,5],[1,1,0,0,-5]];perimeter=orthogonalPerimeter;outlineConnect=0;targetShapes=umlLifeline;portConstraint=eastwest;newEdgeStyle={&quot;curved&quot;:0,&quot;rounded&quot;:0};fillColor=#b1ddf0;strokeColor=#10739e;strokeWidth=2;" parent="vON2dF-ep-lUM6U2tdR--59" vertex="1">
          <mxGeometry x="25" y="239" width="10" height="61" as="geometry" />
        </mxCell>
        <mxCell id="vON2dF-ep-lUM6U2tdR--73" value="&lt;div style=&quot;&quot;&gt;&lt;b style=&quot;&quot;&gt;Update Character payload with planet name&amp;nbsp;&lt;/b&gt;&lt;/div&gt;" style="html=1;align=left;spacingLeft=2;endArrow=block;rounded=0;edgeStyle=orthogonalEdgeStyle;curved=0;rounded=0;fillColor=#b1ddf0;strokeColor=#10739e;strokeWidth=2;labelBorderColor=default;" parent="vON2dF-ep-lUM6U2tdR--59" target="vON2dF-ep-lUM6U2tdR--72" edge="1">
          <mxGeometry x="0.0059" relative="1" as="geometry">
            <mxPoint x="35" y="249" as="sourcePoint" />
            <Array as="points">
              <mxPoint x="70" y="249" />
              <mxPoint x="70" y="279" />
            </Array>
            <mxPoint as="offset" />
          </mxGeometry>
        </mxCell>
        <mxCell id="vON2dF-ep-lUM6U2tdR--74" value="&lt;b&gt;Log to indicate that character does not have a planet&lt;/b&gt;" style="shape=note2;boundedLbl=1;whiteSpace=wrap;html=1;size=25;verticalAlign=top;align=center;" parent="vON2dF-ep-lUM6U2tdR--59" vertex="1">
          <mxGeometry x="190" y="360" width="180" height="60" as="geometry" />
        </mxCell>
        <mxCell id="vON2dF-ep-lUM6U2tdR--75" value="Does Character have Films?" style="shape=umlFrame;whiteSpace=wrap;html=1;pointerEvents=0;recursiveResize=0;container=1;collapsible=0;width=170;fillColor=#ffff88;strokeColor=#36393d;strokeWidth=2;fontStyle=1" parent="vON2dF-ep-lUM6U2tdR--56" vertex="1">
          <mxGeometry x="30" y="499" width="540" height="481" as="geometry" />
        </mxCell>
        <mxCell id="vON2dF-ep-lUM6U2tdR--76" value="&lt;b style=&quot;background-color: rgb(255, 255, 102);&quot;&gt;Has Films&lt;/b&gt;" style="text;html=1;" parent="vON2dF-ep-lUM6U2tdR--75" vertex="1">
          <mxGeometry width="100" height="20" relative="1" as="geometry">
            <mxPoint x="20" y="40" as="offset" />
          </mxGeometry>
        </mxCell>
        <mxCell id="vON2dF-ep-lUM6U2tdR--77" value="&lt;b style=&quot;background-color: rgb(255, 255, 102);&quot;&gt;Does not have Films&lt;/b&gt;" style="line;strokeWidth=2;dashed=1;labelPosition=center;verticalLabelPosition=bottom;align=left;verticalAlign=top;spacingLeft=20;spacingTop=15;html=1;whiteSpace=wrap;" parent="vON2dF-ep-lUM6U2tdR--75" vertex="1">
          <mxGeometry y="361" width="540" height="10" as="geometry" />
        </mxCell>
        <mxCell id="vON2dF-ep-lUM6U2tdR--87" value="&lt;b&gt;Log to indicate that character does not have films&lt;/b&gt;" style="shape=note2;boundedLbl=1;whiteSpace=wrap;html=1;size=25;verticalAlign=top;align=center;" parent="vON2dF-ep-lUM6U2tdR--75" vertex="1">
          <mxGeometry x="180" y="411" width="180" height="60" as="geometry" />
        </mxCell>
        <mxCell id="vON2dF-ep-lUM6U2tdR--90" value="" style="endArrow=classic;html=1;rounded=0;dashed=1;" parent="vON2dF-ep-lUM6U2tdR--75" edge="1">
          <mxGeometry width="50" height="50" relative="1" as="geometry">
            <mxPoint x="35" y="202" as="sourcePoint" />
            <mxPoint x="507" y="202" as="targetPoint" />
          </mxGeometry>
        </mxCell>
        <mxCell id="vON2dF-ep-lUM6U2tdR--91" value="&lt;b&gt;GET: /api/films&lt;/b&gt;&lt;b&gt;/{filmId}&lt;/b&gt;" style="text;strokeColor=none;align=center;fillColor=none;html=1;verticalAlign=middle;whiteSpace=wrap;rounded=0;" parent="vON2dF-ep-lUM6U2tdR--75" vertex="1">
          <mxGeometry x="192" y="182" width="180" height="20" as="geometry" />
        </mxCell>
        <mxCell id="vON2dF-ep-lUM6U2tdR--93" value="&lt;b&gt;GET:&amp;nbsp;&lt;/b&gt;&lt;b&gt;/api/films&lt;/b&gt;&lt;b&gt;/{filmId}&lt;/b&gt;&lt;b&gt;&amp;nbsp;Response&lt;/b&gt;" style="text;strokeColor=none;align=center;fillColor=none;html=1;verticalAlign=middle;whiteSpace=wrap;rounded=0;" parent="vON2dF-ep-lUM6U2tdR--75" vertex="1">
          <mxGeometry x="157" y="211" width="250" height="20" as="geometry" />
        </mxCell>
        <mxCell id="vON2dF-ep-lUM6U2tdR--94" value="" style="html=1;points=[[0,0,0,0,5],[0,1,0,0,-5],[1,0,0,0,5],[1,1,0,0,-5]];perimeter=orthogonalPerimeter;outlineConnect=0;targetShapes=umlLifeline;portConstraint=eastwest;newEdgeStyle={&quot;curved&quot;:0,&quot;rounded&quot;:0};fillColor=#e1d5e7;strokeColor=#9673a6;strokeWidth=2;" parent="vON2dF-ep-lUM6U2tdR--75" vertex="1">
          <mxGeometry x="507" y="190" width="10" height="50" as="geometry" />
        </mxCell>
        <mxCell id="vON2dF-ep-lUM6U2tdR--96" value="&lt;div style=&quot;&quot;&gt;&lt;div&gt;&lt;b&gt;Prepare Payload Common Http Request to get film&lt;/b&gt;&lt;/div&gt;&lt;/div&gt;" style="html=1;align=left;spacingLeft=2;endArrow=block;rounded=0;edgeStyle=orthogonalEdgeStyle;curved=0;rounded=0;fillColor=#b1ddf0;strokeColor=#10739e;strokeWidth=2;labelBorderColor=default;" parent="vON2dF-ep-lUM6U2tdR--75" target="vON2dF-ep-lUM6U2tdR--95" edge="1">
          <mxGeometry x="0.0059" relative="1" as="geometry">
            <mxPoint x="35" y="131" as="sourcePoint" />
            <Array as="points">
              <mxPoint x="70" y="131" />
              <mxPoint x="70" y="161" />
            </Array>
            <mxPoint as="offset" />
          </mxGeometry>
        </mxCell>
        <mxCell id="vON2dF-ep-lUM6U2tdR--97" value="loop payload.films - parallel" style="shape=umlFrame;whiteSpace=wrap;html=1;pointerEvents=0;recursiveResize=0;container=1;collapsible=0;width=170;strokeWidth=2;fillColor=#ffff88;strokeColor=#36393d;fontStyle=1" parent="vON2dF-ep-lUM6U2tdR--75" vertex="1">
          <mxGeometry x="10" y="67.5" width="520" height="189" as="geometry" />
        </mxCell>
        <mxCell id="vON2dF-ep-lUM6U2tdR--95" value="" style="html=1;points=[[0,0,0,0,5],[0,1,0,0,-5],[1,0,0,0,5],[1,1,0,0,-5]];perimeter=orthogonalPerimeter;outlineConnect=0;targetShapes=umlLifeline;portConstraint=eastwest;newEdgeStyle={&quot;curved&quot;:0,&quot;rounded&quot;:0};fillColor=#b1ddf0;strokeColor=#10739e;strokeWidth=2;" parent="vON2dF-ep-lUM6U2tdR--97" vertex="1">
          <mxGeometry x="15" y="50" width="10" height="64.5" as="geometry" />
        </mxCell>
        <mxCell id="vON2dF-ep-lUM6U2tdR--100" value="" style="html=1;points=[[0,0,0,0,5],[0,1,0,0,-5],[1,0,0,0,5],[1,1,0,0,-5]];perimeter=orthogonalPerimeter;outlineConnect=0;targetShapes=umlLifeline;portConstraint=eastwest;newEdgeStyle={&quot;curved&quot;:0,&quot;rounded&quot;:0};fillColor=#b1ddf0;strokeColor=#10739e;strokeWidth=2;" parent="vON2dF-ep-lUM6U2tdR--75" vertex="1">
          <mxGeometry x="25" y="270" width="10" height="69" as="geometry" />
        </mxCell>
        <mxCell id="vON2dF-ep-lUM6U2tdR--101" value="&lt;div style=&quot;&quot;&gt;&lt;b style=&quot;&quot;&gt;Update Character payload with films&lt;/b&gt;&lt;/div&gt;" style="html=1;align=left;spacingLeft=2;endArrow=block;rounded=0;edgeStyle=orthogonalEdgeStyle;curved=0;rounded=0;fillColor=#b1ddf0;strokeColor=#10739e;strokeWidth=2;labelBorderColor=default;" parent="vON2dF-ep-lUM6U2tdR--75" target="vON2dF-ep-lUM6U2tdR--100" edge="1">
          <mxGeometry x="0.0059" relative="1" as="geometry">
            <mxPoint x="35" y="288" as="sourcePoint" />
            <Array as="points">
              <mxPoint x="70" y="288" />
              <mxPoint x="70" y="318" />
            </Array>
            <mxPoint as="offset" />
            <mxPoint x="45" y="318.06666666666706" as="targetPoint" />
          </mxGeometry>
        </mxCell>
        <mxCell id="vON2dF-ep-lUM6U2tdR--102" value="Does Character have Species?" style="shape=umlFrame;whiteSpace=wrap;html=1;pointerEvents=0;recursiveResize=0;container=1;collapsible=0;width=170;fillColor=#ffff88;strokeColor=#36393d;strokeWidth=2;fontStyle=1" parent="vON2dF-ep-lUM6U2tdR--56" vertex="1">
          <mxGeometry x="30" y="1000" width="540" height="481" as="geometry" />
        </mxCell>
        <mxCell id="vON2dF-ep-lUM6U2tdR--103" value="&lt;b style=&quot;background-color: rgb(255, 255, 102);&quot;&gt;Has Species&lt;/b&gt;" style="text;html=1;" parent="vON2dF-ep-lUM6U2tdR--102" vertex="1">
          <mxGeometry width="100" height="20" relative="1" as="geometry">
            <mxPoint x="20" y="40" as="offset" />
          </mxGeometry>
        </mxCell>
        <mxCell id="vON2dF-ep-lUM6U2tdR--104" value="&lt;b style=&quot;background-color: rgb(255, 255, 102);&quot;&gt;Does not have Species&lt;/b&gt;" style="line;strokeWidth=2;dashed=1;labelPosition=center;verticalLabelPosition=bottom;align=left;verticalAlign=top;spacingLeft=20;spacingTop=15;html=1;whiteSpace=wrap;" parent="vON2dF-ep-lUM6U2tdR--102" vertex="1">
          <mxGeometry y="361" width="540" height="10" as="geometry" />
        </mxCell>
        <mxCell id="vON2dF-ep-lUM6U2tdR--105" value="&lt;b&gt;Log to indicate that character does not have species&lt;/b&gt;" style="shape=note2;boundedLbl=1;whiteSpace=wrap;html=1;size=25;verticalAlign=top;align=center;" parent="vON2dF-ep-lUM6U2tdR--102" vertex="1">
          <mxGeometry x="180" y="411" width="180" height="60" as="geometry" />
        </mxCell>
        <mxCell id="vON2dF-ep-lUM6U2tdR--106" value="" style="endArrow=classic;html=1;rounded=0;dashed=1;" parent="vON2dF-ep-lUM6U2tdR--102" edge="1">
          <mxGeometry width="50" height="50" relative="1" as="geometry">
            <mxPoint x="37" y="202" as="sourcePoint" />
            <mxPoint x="507" y="202" as="targetPoint" />
          </mxGeometry>
        </mxCell>
        <mxCell id="vON2dF-ep-lUM6U2tdR--107" value="&lt;b&gt;GET: /api/species&lt;/b&gt;&lt;b&gt;/{specieId}&lt;/b&gt;" style="text;strokeColor=none;align=center;fillColor=none;html=1;verticalAlign=middle;whiteSpace=wrap;rounded=0;" parent="vON2dF-ep-lUM6U2tdR--102" vertex="1">
          <mxGeometry x="192" y="182" width="180" height="20" as="geometry" />
        </mxCell>
        <mxCell id="vON2dF-ep-lUM6U2tdR--108" value="&lt;b&gt;GET:&amp;nbsp;&lt;/b&gt;&lt;b&gt;/api/species&lt;/b&gt;&lt;b&gt;/{specieId}&lt;/b&gt;&lt;b&gt;&amp;nbsp;Response&lt;/b&gt;" style="text;strokeColor=none;align=center;fillColor=none;html=1;verticalAlign=middle;whiteSpace=wrap;rounded=0;" parent="vON2dF-ep-lUM6U2tdR--102" vertex="1">
          <mxGeometry x="157" y="211" width="250" height="20" as="geometry" />
        </mxCell>
        <mxCell id="vON2dF-ep-lUM6U2tdR--109" value="" style="html=1;points=[[0,0,0,0,5],[0,1,0,0,-5],[1,0,0,0,5],[1,1,0,0,-5]];perimeter=orthogonalPerimeter;outlineConnect=0;targetShapes=umlLifeline;portConstraint=eastwest;newEdgeStyle={&quot;curved&quot;:0,&quot;rounded&quot;:0};fillColor=#e1d5e7;strokeColor=#9673a6;strokeWidth=2;" parent="vON2dF-ep-lUM6U2tdR--102" vertex="1">
          <mxGeometry x="507" y="190" width="10" height="50" as="geometry" />
        </mxCell>
        <mxCell id="vON2dF-ep-lUM6U2tdR--111" value="&lt;div style=&quot;&quot;&gt;&lt;div&gt;&lt;b&gt;Prepare Payload Common Http Request to get specie&amp;nbsp;&lt;/b&gt;&lt;/div&gt;&lt;/div&gt;" style="html=1;align=left;spacingLeft=2;endArrow=block;rounded=0;edgeStyle=orthogonalEdgeStyle;curved=0;rounded=0;fillColor=#b1ddf0;strokeColor=#10739e;strokeWidth=2;labelBorderColor=default;" parent="vON2dF-ep-lUM6U2tdR--102" target="vON2dF-ep-lUM6U2tdR--110" edge="1">
          <mxGeometry x="0.0059" relative="1" as="geometry">
            <mxPoint x="35" y="131" as="sourcePoint" />
            <Array as="points">
              <mxPoint x="70" y="131" />
              <mxPoint x="70" y="161" />
            </Array>
            <mxPoint as="offset" />
          </mxGeometry>
        </mxCell>
        <mxCell id="vON2dF-ep-lUM6U2tdR--112" value="loop payload.species - parallel" style="shape=umlFrame;whiteSpace=wrap;html=1;pointerEvents=0;recursiveResize=0;container=1;collapsible=0;width=170;strokeWidth=2;fillColor=#ffff88;strokeColor=#36393d;fontStyle=1" parent="vON2dF-ep-lUM6U2tdR--102" vertex="1">
          <mxGeometry x="10" y="67.5" width="520" height="189" as="geometry" />
        </mxCell>
        <mxCell id="vON2dF-ep-lUM6U2tdR--115" value="" style="endArrow=classic;html=1;rounded=0;dashed=1;" parent="vON2dF-ep-lUM6U2tdR--112" edge="1">
          <mxGeometry width="50" height="50" relative="1" as="geometry">
            <mxPoint x="496" y="163.5" as="sourcePoint" />
            <mxPoint x="24" y="163.5" as="targetPoint" />
          </mxGeometry>
        </mxCell>
        <mxCell id="vON2dF-ep-lUM6U2tdR--152" value="" style="html=1;points=[[0,0,0,0,5],[0,1,0,0,-5],[1,0,0,0,5],[1,1,0,0,-5]];perimeter=orthogonalPerimeter;outlineConnect=0;targetShapes=umlLifeline;portConstraint=eastwest;newEdgeStyle={&quot;curved&quot;:0,&quot;rounded&quot;:0};fillColor=#b1ddf0;strokeColor=#10739e;strokeWidth=2;" parent="vON2dF-ep-lUM6U2tdR--112" vertex="1">
          <mxGeometry x="15" y="120" width="10" height="60" as="geometry" />
        </mxCell>
        <mxCell id="vON2dF-ep-lUM6U2tdR--113" value="" style="html=1;points=[[0,0,0,0,5],[0,1,0,0,-5],[1,0,0,0,5],[1,1,0,0,-5]];perimeter=orthogonalPerimeter;outlineConnect=0;targetShapes=umlLifeline;portConstraint=eastwest;newEdgeStyle={&quot;curved&quot;:0,&quot;rounded&quot;:0};fillColor=#b1ddf0;strokeColor=#10739e;strokeWidth=2;" parent="vON2dF-ep-lUM6U2tdR--102" vertex="1">
          <mxGeometry x="26" y="270" width="10" height="68" as="geometry" />
        </mxCell>
        <mxCell id="vON2dF-ep-lUM6U2tdR--114" value="&lt;div style=&quot;&quot;&gt;&lt;b style=&quot;&quot;&gt;Update Character payload with species&lt;/b&gt;&lt;/div&gt;" style="html=1;align=left;spacingLeft=2;endArrow=block;rounded=0;edgeStyle=orthogonalEdgeStyle;curved=0;rounded=0;fillColor=#b1ddf0;strokeColor=#10739e;strokeWidth=2;labelBorderColor=default;" parent="vON2dF-ep-lUM6U2tdR--102" target="vON2dF-ep-lUM6U2tdR--113" edge="1">
          <mxGeometry x="-0.0047" relative="1" as="geometry">
            <mxPoint x="35" y="288" as="sourcePoint" />
            <Array as="points">
              <mxPoint x="70" y="288" />
              <mxPoint x="70" y="318" />
            </Array>
            <mxPoint as="offset" />
            <mxPoint x="45" y="318.06666666666706" as="targetPoint" />
          </mxGeometry>
        </mxCell>
        <mxCell id="vON2dF-ep-lUM6U2tdR--131" value="Does Character have Starships?" style="shape=umlFrame;whiteSpace=wrap;html=1;pointerEvents=0;recursiveResize=0;container=1;collapsible=0;width=170;fillColor=#ffff88;strokeColor=#36393d;strokeWidth=2;fontStyle=1" parent="vON2dF-ep-lUM6U2tdR--56" vertex="1">
          <mxGeometry x="30" y="2000" width="540" height="481" as="geometry" />
        </mxCell>
        <mxCell id="vON2dF-ep-lUM6U2tdR--132" value="&lt;b style=&quot;background-color: rgb(255, 255, 102);&quot;&gt;Has Starships&lt;/b&gt;" style="text;html=1;" parent="vON2dF-ep-lUM6U2tdR--131" vertex="1">
          <mxGeometry width="100" height="20" relative="1" as="geometry">
            <mxPoint x="20" y="40" as="offset" />
          </mxGeometry>
        </mxCell>
        <mxCell id="vON2dF-ep-lUM6U2tdR--133" value="&lt;b style=&quot;background-color: rgb(255, 255, 102);&quot;&gt;Does not have Starships&lt;/b&gt;" style="line;strokeWidth=2;dashed=1;labelPosition=center;verticalLabelPosition=bottom;align=left;verticalAlign=top;spacingLeft=20;spacingTop=15;html=1;whiteSpace=wrap;" parent="vON2dF-ep-lUM6U2tdR--131" vertex="1">
          <mxGeometry y="361" width="540" height="10" as="geometry" />
        </mxCell>
        <mxCell id="vON2dF-ep-lUM6U2tdR--134" value="&lt;b&gt;Log to indicate that character does not have starships&lt;/b&gt;" style="shape=note2;boundedLbl=1;whiteSpace=wrap;html=1;size=25;verticalAlign=top;align=center;" parent="vON2dF-ep-lUM6U2tdR--131" vertex="1">
          <mxGeometry x="180" y="411" width="180" height="60" as="geometry" />
        </mxCell>
        <mxCell id="vON2dF-ep-lUM6U2tdR--135" value="" style="endArrow=classic;html=1;rounded=0;dashed=1;" parent="vON2dF-ep-lUM6U2tdR--131" edge="1">
          <mxGeometry width="50" height="50" relative="1" as="geometry">
            <mxPoint x="37" y="202" as="sourcePoint" />
            <mxPoint x="507" y="202" as="targetPoint" />
          </mxGeometry>
        </mxCell>
        <mxCell id="vON2dF-ep-lUM6U2tdR--138" value="" style="html=1;points=[[0,0,0,0,5],[0,1,0,0,-5],[1,0,0,0,5],[1,1,0,0,-5]];perimeter=orthogonalPerimeter;outlineConnect=0;targetShapes=umlLifeline;portConstraint=eastwest;newEdgeStyle={&quot;curved&quot;:0,&quot;rounded&quot;:0};fillColor=#e1d5e7;strokeColor=#9673a6;strokeWidth=2;" parent="vON2dF-ep-lUM6U2tdR--131" vertex="1">
          <mxGeometry x="507" y="190" width="10" height="50" as="geometry" />
        </mxCell>
        <mxCell id="vON2dF-ep-lUM6U2tdR--140" value="&lt;div style=&quot;&quot;&gt;&lt;div&gt;&lt;b&gt;Prepare Payload Common Http Request to get starship&amp;nbsp;&lt;/b&gt;&lt;/div&gt;&lt;/div&gt;" style="html=1;align=left;spacingLeft=2;endArrow=block;rounded=0;edgeStyle=orthogonalEdgeStyle;curved=0;rounded=0;fillColor=#b1ddf0;strokeColor=#10739e;strokeWidth=2;labelBorderColor=default;" parent="vON2dF-ep-lUM6U2tdR--131" target="vON2dF-ep-lUM6U2tdR--139" edge="1">
          <mxGeometry x="0.0059" relative="1" as="geometry">
            <mxPoint x="35" y="131" as="sourcePoint" />
            <Array as="points">
              <mxPoint x="70" y="131" />
              <mxPoint x="70" y="161" />
            </Array>
            <mxPoint as="offset" />
          </mxGeometry>
        </mxCell>
        <mxCell id="vON2dF-ep-lUM6U2tdR--141" value="loop payload.starships - parallel" style="shape=umlFrame;whiteSpace=wrap;html=1;pointerEvents=0;recursiveResize=0;container=1;collapsible=0;width=170;strokeWidth=2;fillColor=#ffff88;strokeColor=#36393d;fontStyle=1" parent="vON2dF-ep-lUM6U2tdR--131" vertex="1">
          <mxGeometry x="10" y="67.5" width="520" height="189" as="geometry" />
        </mxCell>
        <mxCell id="vON2dF-ep-lUM6U2tdR--142" value="" style="endArrow=classic;html=1;rounded=0;dashed=1;" parent="vON2dF-ep-lUM6U2tdR--141" edge="1">
          <mxGeometry width="50" height="50" relative="1" as="geometry">
            <mxPoint x="496" y="163.5" as="sourcePoint" />
            <mxPoint x="24" y="163.5" as="targetPoint" />
          </mxGeometry>
        </mxCell>
        <mxCell id="vON2dF-ep-lUM6U2tdR--139" value="" style="html=1;points=[[0,0,0,0,5],[0,1,0,0,-5],[1,0,0,0,5],[1,1,0,0,-5]];perimeter=orthogonalPerimeter;outlineConnect=0;targetShapes=umlLifeline;portConstraint=eastwest;newEdgeStyle={&quot;curved&quot;:0,&quot;rounded&quot;:0};fillColor=#b1ddf0;strokeColor=#10739e;strokeWidth=2;" parent="vON2dF-ep-lUM6U2tdR--141" vertex="1">
          <mxGeometry x="16" y="50" width="10" height="64.5" as="geometry" />
        </mxCell>
        <mxCell id="vON2dF-ep-lUM6U2tdR--154" value="" style="html=1;points=[[0,0,0,0,5],[0,1,0,0,-5],[1,0,0,0,5],[1,1,0,0,-5]];perimeter=orthogonalPerimeter;outlineConnect=0;targetShapes=umlLifeline;portConstraint=eastwest;newEdgeStyle={&quot;curved&quot;:0,&quot;rounded&quot;:0};fillColor=#b1ddf0;strokeColor=#10739e;strokeWidth=2;direction=west;" parent="vON2dF-ep-lUM6U2tdR--141" vertex="1">
          <mxGeometry x="16" y="122.5" width="10" height="50" as="geometry" />
        </mxCell>
        <mxCell id="vON2dF-ep-lUM6U2tdR--136" value="&lt;b&gt;GET: /api/starships&lt;/b&gt;&lt;b&gt;/{starshipId}&lt;/b&gt;" style="text;strokeColor=none;align=center;fillColor=none;html=1;verticalAlign=middle;whiteSpace=wrap;rounded=0;" parent="vON2dF-ep-lUM6U2tdR--141" vertex="1">
          <mxGeometry x="166" y="114.5" width="188" height="20" as="geometry" />
        </mxCell>
        <mxCell id="vON2dF-ep-lUM6U2tdR--137" value="&lt;b&gt;GET:&amp;nbsp;&lt;/b&gt;&lt;b&gt;/api/starships&lt;/b&gt;&lt;b&gt;/{starshipId}&lt;/b&gt;&lt;b&gt;&amp;nbsp;Response&lt;/b&gt;" style="text;strokeColor=none;align=center;fillColor=none;html=1;verticalAlign=middle;whiteSpace=wrap;rounded=0;" parent="vON2dF-ep-lUM6U2tdR--141" vertex="1">
          <mxGeometry x="135" y="143.5" width="250" height="20" as="geometry" />
        </mxCell>
        <mxCell id="vON2dF-ep-lUM6U2tdR--143" value="" style="html=1;points=[[0,0,0,0,5],[0,1,0,0,-5],[1,0,0,0,5],[1,1,0,0,-5]];perimeter=orthogonalPerimeter;outlineConnect=0;targetShapes=umlLifeline;portConstraint=eastwest;newEdgeStyle={&quot;curved&quot;:0,&quot;rounded&quot;:0};fillColor=#b1ddf0;strokeColor=#10739e;strokeWidth=2;" parent="vON2dF-ep-lUM6U2tdR--131" vertex="1">
          <mxGeometry x="25" y="270" width="10" height="69" as="geometry" />
        </mxCell>
        <mxCell id="vON2dF-ep-lUM6U2tdR--144" value="&lt;div style=&quot;&quot;&gt;&lt;b style=&quot;&quot;&gt;Update Character payload with starships&lt;/b&gt;&lt;/div&gt;" style="html=1;align=left;spacingLeft=2;endArrow=block;rounded=0;edgeStyle=orthogonalEdgeStyle;curved=0;rounded=0;fillColor=#b1ddf0;strokeColor=#10739e;strokeWidth=2;labelBorderColor=default;" parent="vON2dF-ep-lUM6U2tdR--131" target="vON2dF-ep-lUM6U2tdR--143" edge="1">
          <mxGeometry x="0.0044" relative="1" as="geometry">
            <mxPoint x="35" y="288" as="sourcePoint" />
            <Array as="points">
              <mxPoint x="70" y="288" />
              <mxPoint x="70" y="318" />
            </Array>
            <mxPoint as="offset" />
            <mxPoint x="45" y="318.06666666666706" as="targetPoint" />
          </mxGeometry>
        </mxCell>
        <mxCell id="vON2dF-ep-lUM6U2tdR--92" value="" style="endArrow=classic;html=1;rounded=0;dashed=1;" parent="1" edge="1">
          <mxGeometry width="50" height="50" relative="1" as="geometry">
            <mxPoint x="937" y="2108" as="sourcePoint" />
            <mxPoint x="465" y="2108" as="targetPoint" />
          </mxGeometry>
        </mxCell>
        <mxCell id="vON2dF-ep-lUM6U2tdR--117" value="Does Character have vehicles?" style="shape=umlFrame;whiteSpace=wrap;html=1;pointerEvents=0;recursiveResize=0;container=1;collapsible=0;width=170;fillColor=#ffff88;strokeColor=#36393d;strokeWidth=2;fontStyle=1" parent="1" vertex="1">
          <mxGeometry x="430" y="2880" width="540" height="481" as="geometry" />
        </mxCell>
        <mxCell id="vON2dF-ep-lUM6U2tdR--118" value="&lt;b style=&quot;background-color: rgb(255, 255, 102);&quot;&gt;Has Vehicles&lt;/b&gt;" style="text;html=1;" parent="vON2dF-ep-lUM6U2tdR--117" vertex="1">
          <mxGeometry width="100" height="20" relative="1" as="geometry">
            <mxPoint x="20" y="40" as="offset" />
          </mxGeometry>
        </mxCell>
        <mxCell id="vON2dF-ep-lUM6U2tdR--119" value="&lt;b style=&quot;background-color: rgb(255, 255, 102);&quot;&gt;Does not have Vehicles&lt;/b&gt;" style="line;strokeWidth=2;dashed=1;labelPosition=center;verticalLabelPosition=bottom;align=left;verticalAlign=top;spacingLeft=20;spacingTop=15;html=1;whiteSpace=wrap;" parent="vON2dF-ep-lUM6U2tdR--117" vertex="1">
          <mxGeometry y="361" width="540" height="10" as="geometry" />
        </mxCell>
        <mxCell id="vON2dF-ep-lUM6U2tdR--120" value="&lt;b&gt;Log to indicate that character does not have vehicles&lt;/b&gt;" style="shape=note2;boundedLbl=1;whiteSpace=wrap;html=1;size=25;verticalAlign=top;align=center;" parent="vON2dF-ep-lUM6U2tdR--117" vertex="1">
          <mxGeometry x="180" y="411" width="180" height="60" as="geometry" />
        </mxCell>
        <mxCell id="vON2dF-ep-lUM6U2tdR--121" value="" style="endArrow=classic;html=1;rounded=0;dashed=1;" parent="vON2dF-ep-lUM6U2tdR--117" edge="1">
          <mxGeometry width="50" height="50" relative="1" as="geometry">
            <mxPoint x="37" y="202" as="sourcePoint" />
            <mxPoint x="507" y="202" as="targetPoint" />
          </mxGeometry>
        </mxCell>
        <mxCell id="vON2dF-ep-lUM6U2tdR--122" value="&lt;b&gt;GET: /api/vehicles&lt;/b&gt;&lt;b&gt;/{vehicleId}&lt;/b&gt;" style="text;strokeColor=none;align=center;fillColor=none;html=1;verticalAlign=middle;whiteSpace=wrap;rounded=0;" parent="vON2dF-ep-lUM6U2tdR--117" vertex="1">
          <mxGeometry x="192" y="182" width="180" height="20" as="geometry" />
        </mxCell>
        <mxCell id="vON2dF-ep-lUM6U2tdR--123" value="&lt;b&gt;GET:&amp;nbsp;&lt;/b&gt;&lt;b&gt;/api/vehicles&lt;/b&gt;&lt;b&gt;/{vehicleId}&lt;/b&gt;&lt;b&gt;&amp;nbsp;Response&lt;/b&gt;" style="text;strokeColor=none;align=center;fillColor=none;html=1;verticalAlign=middle;whiteSpace=wrap;rounded=0;" parent="vON2dF-ep-lUM6U2tdR--117" vertex="1">
          <mxGeometry x="157" y="211" width="250" height="20" as="geometry" />
        </mxCell>
        <mxCell id="vON2dF-ep-lUM6U2tdR--124" value="" style="html=1;points=[[0,0,0,0,5],[0,1,0,0,-5],[1,0,0,0,5],[1,1,0,0,-5]];perimeter=orthogonalPerimeter;outlineConnect=0;targetShapes=umlLifeline;portConstraint=eastwest;newEdgeStyle={&quot;curved&quot;:0,&quot;rounded&quot;:0};fillColor=#e1d5e7;strokeColor=#9673a6;strokeWidth=2;" parent="vON2dF-ep-lUM6U2tdR--117" vertex="1">
          <mxGeometry x="507" y="190" width="10" height="50" as="geometry" />
        </mxCell>
        <mxCell id="vON2dF-ep-lUM6U2tdR--126" value="&lt;div style=&quot;&quot;&gt;&lt;div&gt;&lt;b&gt;Prepare Payload Common Http Request to get vehicle&amp;nbsp;&lt;/b&gt;&lt;/div&gt;&lt;/div&gt;" style="html=1;align=left;spacingLeft=2;endArrow=block;rounded=0;edgeStyle=orthogonalEdgeStyle;curved=0;rounded=0;fillColor=#b1ddf0;strokeColor=#10739e;strokeWidth=2;labelBorderColor=default;" parent="vON2dF-ep-lUM6U2tdR--117" target="vON2dF-ep-lUM6U2tdR--125" edge="1">
          <mxGeometry x="0.0059" relative="1" as="geometry">
            <mxPoint x="35" y="131" as="sourcePoint" />
            <Array as="points">
              <mxPoint x="70" y="131" />
              <mxPoint x="70" y="161" />
            </Array>
            <mxPoint as="offset" />
          </mxGeometry>
        </mxCell>
        <mxCell id="vON2dF-ep-lUM6U2tdR--127" value="loop payload.vehicles - parallel" style="shape=umlFrame;whiteSpace=wrap;html=1;pointerEvents=0;recursiveResize=0;container=1;collapsible=0;width=170;strokeWidth=2;fillColor=#ffff88;strokeColor=#36393d;fontStyle=1" parent="vON2dF-ep-lUM6U2tdR--117" vertex="1">
          <mxGeometry x="10" y="67.5" width="520" height="189" as="geometry" />
        </mxCell>
        <mxCell id="vON2dF-ep-lUM6U2tdR--128" value="" style="endArrow=classic;html=1;rounded=0;dashed=1;" parent="vON2dF-ep-lUM6U2tdR--127" edge="1">
          <mxGeometry width="50" height="50" relative="1" as="geometry">
            <mxPoint x="496" y="163.5" as="sourcePoint" />
            <mxPoint x="24" y="163.5" as="targetPoint" />
          </mxGeometry>
        </mxCell>
        <mxCell id="vON2dF-ep-lUM6U2tdR--125" value="" style="html=1;points=[[0,0,0,0,5],[0,1,0,0,-5],[1,0,0,0,5],[1,1,0,0,-5]];perimeter=orthogonalPerimeter;outlineConnect=0;targetShapes=umlLifeline;portConstraint=eastwest;newEdgeStyle={&quot;curved&quot;:0,&quot;rounded&quot;:0};fillColor=#b1ddf0;strokeColor=#10739e;strokeWidth=2;" parent="vON2dF-ep-lUM6U2tdR--127" vertex="1">
          <mxGeometry x="16" y="50" width="10" height="64.5" as="geometry" />
        </mxCell>
        <mxCell id="vON2dF-ep-lUM6U2tdR--153" value="" style="html=1;points=[[0,0,0,0,5],[0,1,0,0,-5],[1,0,0,0,5],[1,1,0,0,-5]];perimeter=orthogonalPerimeter;outlineConnect=0;targetShapes=umlLifeline;portConstraint=eastwest;newEdgeStyle={&quot;curved&quot;:0,&quot;rounded&quot;:0};fillColor=#b1ddf0;strokeColor=#10739e;strokeWidth=2;" parent="vON2dF-ep-lUM6U2tdR--127" vertex="1">
          <mxGeometry x="16" y="122.5" width="10" height="50" as="geometry" />
        </mxCell>
        <mxCell id="vON2dF-ep-lUM6U2tdR--129" value="" style="html=1;points=[[0,0,0,0,5],[0,1,0,0,-5],[1,0,0,0,5],[1,1,0,0,-5]];perimeter=orthogonalPerimeter;outlineConnect=0;targetShapes=umlLifeline;portConstraint=eastwest;newEdgeStyle={&quot;curved&quot;:0,&quot;rounded&quot;:0};fillColor=#b1ddf0;strokeColor=#10739e;strokeWidth=2;" parent="vON2dF-ep-lUM6U2tdR--117" vertex="1">
          <mxGeometry x="25" y="270" width="10" height="69" as="geometry" />
        </mxCell>
        <mxCell id="vON2dF-ep-lUM6U2tdR--130" value="&lt;div style=&quot;&quot;&gt;&lt;b style=&quot;&quot;&gt;Update Character payload with vehicles&lt;/b&gt;&lt;/div&gt;" style="html=1;align=left;spacingLeft=2;endArrow=block;rounded=0;edgeStyle=orthogonalEdgeStyle;curved=0;rounded=0;fillColor=#b1ddf0;strokeColor=#10739e;strokeWidth=2;labelBorderColor=default;" parent="vON2dF-ep-lUM6U2tdR--117" target="vON2dF-ep-lUM6U2tdR--129" edge="1">
          <mxGeometry x="0.0044" relative="1" as="geometry">
            <mxPoint x="35" y="288" as="sourcePoint" />
            <Array as="points">
              <mxPoint x="70" y="288" />
              <mxPoint x="70" y="318" />
            </Array>
            <mxPoint as="offset" />
            <mxPoint x="45" y="318.06666666666706" as="targetPoint" />
          </mxGeometry>
        </mxCell>
        <mxCell id="vON2dF-ep-lUM6U2tdR--159" value="Process ended correctly?" style="shape=umlFrame;whiteSpace=wrap;html=1;pointerEvents=0;recursiveResize=0;container=1;collapsible=0;width=170;strokeWidth=2;fillColor=#ffff88;strokeColor=#36393d;fontStyle=1" parent="1" vertex="1">
          <mxGeometry x="-80" y="3919" width="920" height="400" as="geometry" />
        </mxCell>
        <mxCell id="vON2dF-ep-lUM6U2tdR--160" value="&lt;b style=&quot;background-color: rgb(255, 255, 102);&quot;&gt;No Errors&lt;/b&gt;" style="text;html=1;" parent="vON2dF-ep-lUM6U2tdR--159" vertex="1">
          <mxGeometry width="100" height="20" relative="1" as="geometry">
            <mxPoint x="20" y="40" as="offset" />
          </mxGeometry>
        </mxCell>
        <mxCell id="vON2dF-ep-lUM6U2tdR--161" value="&lt;b style=&quot;background-color: rgb(255, 255, 102);&quot;&gt;Process Has errors&lt;/b&gt;" style="line;strokeWidth=2;dashed=1;labelPosition=center;verticalLabelPosition=bottom;align=left;verticalAlign=top;spacingLeft=20;spacingTop=15;html=1;whiteSpace=wrap;" parent="vON2dF-ep-lUM6U2tdR--159" vertex="1">
          <mxGeometry y="235" width="920" height="10" as="geometry" />
        </mxCell>
        <mxCell id="vON2dF-ep-lUM6U2tdR--172" value="" style="html=1;points=[[0,0,0,0,5],[0,1,0,0,-5],[1,0,0,0,5],[1,1,0,0,-5]];perimeter=orthogonalPerimeter;outlineConnect=0;targetShapes=umlLifeline;portConstraint=eastwest;newEdgeStyle={&quot;curved&quot;:0,&quot;rounded&quot;:0};fillColor=#fff2cc;strokeColor=#d6b656;strokeWidth=2;" parent="vON2dF-ep-lUM6U2tdR--159" vertex="1">
          <mxGeometry x="135" y="110" width="10" height="69" as="geometry" />
        </mxCell>
        <mxCell id="vON2dF-ep-lUM6U2tdR--173" value="" style="endArrow=classic;html=1;rounded=0;dashed=1;" parent="vON2dF-ep-lUM6U2tdR--159" edge="1">
          <mxGeometry width="50" height="50" relative="1" as="geometry">
            <mxPoint x="335" y="159" as="sourcePoint" />
            <mxPoint x="145" y="159" as="targetPoint" />
          </mxGeometry>
        </mxCell>
        <mxCell id="vON2dF-ep-lUM6U2tdR--174" value="&lt;b&gt;CSV Response&lt;/b&gt;" style="text;strokeColor=none;align=center;fillColor=none;html=1;verticalAlign=middle;whiteSpace=wrap;rounded=0;" parent="vON2dF-ep-lUM6U2tdR--159" vertex="1">
          <mxGeometry x="170" y="140" width="120" height="20" as="geometry" />
        </mxCell>
        <mxCell id="vON2dF-ep-lUM6U2tdR--175" value="" style="endArrow=classic;html=1;rounded=0;dashed=1;" parent="vON2dF-ep-lUM6U2tdR--159" edge="1">
          <mxGeometry width="50" height="50" relative="1" as="geometry">
            <mxPoint x="335" y="340" as="sourcePoint" />
            <mxPoint x="145" y="340.5" as="targetPoint" />
          </mxGeometry>
        </mxCell>
        <mxCell id="vON2dF-ep-lUM6U2tdR--176" value="&lt;b&gt;Error Response&lt;/b&gt;" style="text;strokeColor=none;align=center;fillColor=none;html=1;verticalAlign=middle;whiteSpace=wrap;rounded=0;" parent="vON2dF-ep-lUM6U2tdR--159" vertex="1">
          <mxGeometry x="170" y="320" width="120" height="20" as="geometry" />
        </mxCell>
        <mxCell id="vON2dF-ep-lUM6U2tdR--168" value="" style="endArrow=classic;html=1;rounded=0;dashed=1;" parent="1" target="vON2dF-ep-lUM6U2tdR--158" edge="1">
          <mxGeometry width="50" height="50" relative="1" as="geometry">
            <mxPoint x="455" y="4078" as="sourcePoint" />
            <mxPoint x="290" y="4078" as="targetPoint" />
          </mxGeometry>
        </mxCell>
        <mxCell id="vON2dF-ep-lUM6U2tdR--169" value="" style="endArrow=classic;html=1;rounded=0;dashed=1;" parent="1" edge="1">
          <mxGeometry width="50" height="50" relative="1" as="geometry">
            <mxPoint x="455" y="4259" as="sourcePoint" />
            <mxPoint x="265" y="4259.5" as="targetPoint" />
          </mxGeometry>
        </mxCell>
        <mxCell id="vON2dF-ep-lUM6U2tdR--170" value="&lt;b&gt;CSV Response&lt;/b&gt;" style="text;strokeColor=none;align=center;fillColor=none;html=1;verticalAlign=middle;whiteSpace=wrap;rounded=0;" parent="1" vertex="1">
          <mxGeometry x="290" y="4059" width="120" height="20" as="geometry" />
        </mxCell>
        <mxCell id="vON2dF-ep-lUM6U2tdR--171" value="&lt;b&gt;Error Response&lt;/b&gt;" style="text;strokeColor=none;align=center;fillColor=none;html=1;verticalAlign=middle;whiteSpace=wrap;rounded=0;" parent="1" vertex="1">
          <mxGeometry x="290" y="4239" width="120" height="20" as="geometry" />
        </mxCell>
        <mxCell id="Ysz-K_B-eP1D2sR8AOiZ-1" value="&lt;b&gt;QueryParameter:&amp;nbsp;&lt;br&gt;&lt;br&gt;- gender&lt;/b&gt;&lt;div&gt;&lt;b&gt;- hypermediaSearch&lt;/b&gt;&lt;/div&gt;" style="shape=partialRectangle;html=1;top=1;align=left;dashed=1;" vertex="1" parent="1">
          <mxGeometry x="80" y="10" width="160" height="60" as="geometry" />
        </mxCell>
        <mxCell id="vON2dF-ep-lUM6U2tdR--163" value="" style="shape=umlDestroy;dashed=0;targetShapes=umlLifeline;fillColor=#d0cee2;strokeColor=#56517e;strokeWidth=2;" parent="1" vertex="1">
          <mxGeometry x="920" y="3900" width="40" height="40" as="geometry" />
        </mxCell>
        <mxCell id="Ysz-K_B-eP1D2sR8AOiZ-2" value="HyperMedia Search is Present?" style="shape=umlFrame;whiteSpace=wrap;html=1;pointerEvents=0;recursiveResize=0;container=1;collapsible=0;width=170;strokeWidth=2;fillColor=#ffff88;strokeColor=#36393d;fontStyle=1" vertex="1" parent="1">
          <mxGeometry x="400" y="1020" width="600" height="340" as="geometry" />
        </mxCell>
        <mxCell id="Ysz-K_B-eP1D2sR8AOiZ-3" value="&lt;b&gt;NO&lt;/b&gt;" style="text;html=1;" vertex="1" parent="Ysz-K_B-eP1D2sR8AOiZ-2">
          <mxGeometry width="100" height="20" relative="1" as="geometry">
            <mxPoint x="20" y="40" as="offset" />
          </mxGeometry>
        </mxCell>
        <mxCell id="Ysz-K_B-eP1D2sR8AOiZ-4" value="&lt;b&gt;YES&lt;/b&gt;" style="line;strokeWidth=2;dashed=1;labelPosition=center;verticalLabelPosition=bottom;align=left;verticalAlign=top;spacingLeft=20;spacingTop=15;html=1;whiteSpace=wrap;" vertex="1" parent="Ysz-K_B-eP1D2sR8AOiZ-2">
          <mxGeometry y="216" width="600" height="10" as="geometry" />
        </mxCell>
        <mxCell id="Ysz-K_B-eP1D2sR8AOiZ-19" value="&lt;div style=&quot;&quot;&gt;&lt;b style=&quot;&quot;&gt;Call Hypermedia Search Process - Loop below&lt;/b&gt;&lt;/div&gt;" style="html=1;align=left;spacingLeft=2;endArrow=block;rounded=0;edgeStyle=orthogonalEdgeStyle;curved=0;rounded=0;fillColor=#b1ddf0;strokeColor=#10739e;strokeWidth=2;labelBorderColor=default;" edge="1" parent="Ysz-K_B-eP1D2sR8AOiZ-2" target="Ysz-K_B-eP1D2sR8AOiZ-18">
          <mxGeometry x="0.0187" relative="1" as="geometry">
            <mxPoint x="70" y="274" as="sourcePoint" />
            <Array as="points">
              <mxPoint x="105" y="274" />
              <mxPoint x="105" y="304" />
            </Array>
            <mxPoint as="offset" />
          </mxGeometry>
        </mxCell>
        <mxCell id="Ysz-K_B-eP1D2sR8AOiZ-18" value="" style="html=1;points=[[0,0,0,0,5],[0,1,0,0,-5],[1,0,0,0,5],[1,1,0,0,-5]];perimeter=orthogonalPerimeter;outlineConnect=0;targetShapes=umlLifeline;portConstraint=eastwest;newEdgeStyle={&quot;curved&quot;:0,&quot;rounded&quot;:0};fillColor=#b1ddf0;strokeColor=#10739e;strokeWidth=2;" vertex="1" parent="Ysz-K_B-eP1D2sR8AOiZ-2">
          <mxGeometry x="56" y="260" width="10" height="65" as="geometry" />
        </mxCell>
        <mxCell id="vON2dF-ep-lUM6U2tdR--179" value="" style="shape=umlDestroy;dashed=0;targetShapes=umlLifeline;fillColor=#dae8fc;strokeColor=#6c8ebf;strokeWidth=2;" parent="1" vertex="1">
          <mxGeometry x="440" y="4340" width="40" height="40" as="geometry" />
        </mxCell>
        <mxCell id="vON2dF-ep-lUM6U2tdR--180" value="" style="shape=umlDestroy;dashed=0;targetShapes=umlLifeline;fillColor=#d5e8d4;strokeColor=#82b366;strokeWidth=1;" parent="1" vertex="1">
          <mxGeometry x="240" y="4340" width="40" height="40" as="geometry" />
        </mxCell>
        <mxCell id="vON2dF-ep-lUM6U2tdR--181" value="" style="shape=umlDestroy;dashed=0;targetShapes=umlLifeline;fillColor=#fff2cc;strokeColor=#d6b656;strokeWidth=2;" parent="1" vertex="1">
          <mxGeometry x="40" y="4340" width="40" height="40" as="geometry" />
        </mxCell>
        <mxCell id="Ysz-K_B-eP1D2sR8AOiZ-22" value="&lt;b&gt;CSV Response&lt;/b&gt;" style="html=1;verticalAlign=bottom;endArrow=block;curved=0;rounded=0;exitX=0;exitY=1;exitDx=0;exitDy=-5;exitPerimeter=0;dashed=1;strokeWidth=1;" edge="1" parent="1">
          <mxGeometry width="80" relative="1" as="geometry">
            <mxPoint x="455" y="1161" as="sourcePoint" />
            <mxPoint x="265" y="1161" as="targetPoint" />
          </mxGeometry>
        </mxCell>
        <mxCell id="Ysz-K_B-eP1D2sR8AOiZ-24" value="&lt;b&gt;CSV Response&lt;/b&gt;" style="html=1;verticalAlign=bottom;endArrow=block;curved=0;rounded=0;entryX=1;entryY=1;entryDx=0;entryDy=-5;entryPerimeter=0;dashed=1;strokeWidth=1;" edge="1" parent="1">
          <mxGeometry width="80" relative="1" as="geometry">
            <mxPoint x="250" y="1161" as="sourcePoint" />
            <mxPoint x="65" y="1161" as="targetPoint" />
          </mxGeometry>
        </mxCell>
        <mxCell id="Ysz-K_B-eP1D2sR8AOiZ-25" value="&lt;b&gt;QueryParameter:&amp;nbsp;&lt;br&gt;&lt;br&gt;- gender&lt;/b&gt;&lt;div&gt;&lt;b&gt;- hypermediaSearch&lt;/b&gt;&lt;/div&gt;" style="shape=partialRectangle;html=1;top=1;align=left;dashed=1;" vertex="1" parent="1">
          <mxGeometry x="280" y="30" width="160" height="60" as="geometry" />
        </mxCell>
      </root>
    </mxGraphModel>
  </diagram>
</mxfile>
